<svg width="271" height="239" viewBox="0 0 271 239" fill="none" xmlns="http://www.w3.org/2000/svg">
<path d="M50.8749 94.1661C52.0185 95.2989 53.2082 96.4868 54.3979 97.6937C45.3194 103.138 41.0186 108.16 40.8696 108.334C40.8687 108.33 40.8687 108.326 40.8696 108.322C40.8711 108.314 40.8711 108.306 40.8696 108.298C40.978 107.684 42.4332 100.172 48.3085 91.6494C49.1351 92.4405 49.9887 93.2842 50.8749 94.1661Z" fill="white"/>
<path d="M164.02 79.9264L155.979 94.3596L148.191 108.334C148.191 108.334 136.828 96.2358 118.698 89.6251L122.343 85.3756H53.4167C60.3625 78.0407 71.0317 71.0213 87.2619 67.9286C128.126 60.1205 164.02 79.9264 164.02 79.9264Z" fill="white"/>
<path d="M50.8749 94.166C52.0185 95.2989 53.2082 96.4867 54.3979 97.6937C45.3194 103.138 41.0186 108.159 40.8696 108.334C40.8687 108.33 40.8687 108.326 40.8696 108.322C40.8711 108.314 40.8711 108.306 40.8696 108.298C41.0593 107.741 43.1758 101.348 50.8749 94.166Z" fill="white"/>
<path d="M155.98 94.3594L148.191 108.334C148.191 108.334 136.828 96.2355 118.698 89.6248L122.343 85.3753H63.241C68.707 82.3926 75.4522 79.6393 83.7638 77.5027C116.178 69.1592 148.88 89.5531 155.98 94.3594Z" fill="white"/>
<path d="M47.864 148.56C47.864 148.56 48.1892 150.515 50.0158 150.515H76.189C76.189 150.515 76.6442 153.163 77.9505 154.659H49.4955C47.7313 154.659 47.276 152.53 47.864 148.56Z" fill="white"/>
<path d="M85.3648 130.317L90.3512 135.238H79.5112C81.2794 133.436 83.2396 131.788 85.3648 130.317Z" fill="white"/>
<path d="M73.8232 117.404L73.75 117.308C73.3002 116.716 72.8485 116.13 72.395 115.552C72.1701 115.265 71.9425 114.978 71.7148 114.696C71.4872 114.414 71.2514 114.12 71.0211 113.836C70.3463 113.006 69.5766 112.079 68.7419 111.106H14.0352V137.528H56.8667L58.8017 135.238L71.6362 120.055L73.8476 117.438L73.8232 117.404ZM45.3275 111.747H56.7664V115.248H49.0158V119.201H56.0971V122.65H49.0158V126.816H56.9101V130.317H45.3384L45.3275 111.747ZM24.9375 111.747H27.745L35.7721 123.085V111.757H39.4604V130.327H36.6447L28.6258 118.972V130.327H24.9321L24.9375 111.747Z" fill="white"/>
<path d="M90.3434 135.238L92.6632 137.528H77.4736C78.1016 136.734 78.7764 135.969 79.4953 135.238C81.2686 133.435 83.2343 131.788 85.3652 130.317L90.3434 135.238Z" fill="white"/>
<path d="M73.8232 117.404L73.7501 117.308C73.3002 116.715 72.8485 116.13 72.3951 115.551C72.1701 115.265 71.9425 114.978 71.7148 114.696C71.4872 114.414 71.2514 114.12 71.0211 113.835C70.3463 113.006 69.5767 112.079 68.742 111.106C68.1051 110.363 67.4303 109.593 66.7284 108.819H11.729V135.238H58.8071L71.6417 120.054L73.853 117.437L73.8232 117.404ZM39.4496 130.31H36.6447L28.6258 118.955V130.31H24.9321V111.739H27.7397L35.7721 123.085V111.756H39.4604L39.4496 130.31ZM56.8993 130.31H45.3276V111.739H56.7665V115.241H49.0159V119.194H56.0971V122.643H49.0159V126.808H56.9101L56.8993 130.31Z" fill="white"/>
<path d="M117.885 120.793H114.59V115.169H117.885C119.462 115.169 120.611 116.364 120.611 117.982C120.611 119.6 119.454 120.793 117.885 120.793Z" fill="white"/>
<path d="M141.126 116.656C140.59 116.114 139.929 115.68 139.187 115.382C138.445 115.084 137.639 114.93 136.824 114.93C136.009 114.93 135.203 115.084 134.461 115.382C133.719 115.68 133.057 116.114 132.522 116.656C131.373 117.796 130.785 119.254 130.785 121.032C130.785 122.81 131.373 124.28 132.519 125.408C133.06 125.943 133.723 126.37 134.464 126.663C135.206 126.956 136.009 127.107 136.821 127.107C137.634 127.107 138.437 126.956 139.178 126.663C139.919 126.37 140.582 125.943 141.123 125.408C142.272 124.268 142.86 122.81 142.86 121.032C142.86 119.254 142.275 117.796 141.126 116.656ZM158.069 115.169H154.275V120.666H158.069C159.459 120.666 160.608 119.419 160.608 117.906C160.608 116.393 159.459 115.169 158.069 115.169ZM141.126 116.656C140.59 116.114 139.929 115.68 139.187 115.382C138.445 115.084 137.639 114.93 136.824 114.93C136.009 114.93 135.203 115.084 134.461 115.382C133.719 115.68 133.057 116.114 132.522 116.656C131.373 117.796 130.785 119.254 130.785 121.032C130.785 122.81 131.373 124.28 132.519 125.408C133.06 125.943 133.723 126.37 134.464 126.663C135.206 126.956 136.009 127.107 136.821 127.107C137.634 127.107 138.437 126.956 139.178 126.663C139.919 126.37 140.582 125.943 141.123 125.408C142.272 124.268 142.86 122.81 142.86 121.032C142.86 119.254 142.275 117.796 141.126 116.656ZM158.069 115.169H154.275V120.666H158.069C159.459 120.666 160.608 119.419 160.608 117.906C160.608 116.393 159.459 115.169 158.069 115.169ZM141.126 116.656C140.59 116.114 139.929 115.68 139.187 115.382C138.445 115.084 137.639 114.93 136.824 114.93C136.009 114.93 135.203 115.084 134.461 115.382C133.719 115.68 133.057 116.114 132.522 116.656C131.373 117.796 130.785 119.254 130.785 121.032C130.785 122.81 131.373 124.28 132.519 125.408C133.06 125.943 133.723 126.37 134.464 126.663C135.206 126.956 136.009 127.107 136.821 127.107C137.634 127.107 138.437 126.956 139.178 126.663C139.919 126.37 140.582 125.943 141.123 125.408C142.272 124.268 142.86 122.81 142.86 121.032C142.86 119.254 142.275 117.796 141.126 116.656ZM158.069 115.169H154.275V120.666H158.069C159.459 120.666 160.608 119.419 160.608 117.906C160.608 116.393 159.459 115.169 158.069 115.169ZM191.402 115.169H187.608V120.666H191.402C192.792 120.666 193.941 119.419 193.941 117.906C193.941 116.393 192.784 115.169 191.394 115.169H191.402ZM141.126 116.656C140.59 116.114 139.929 115.68 139.187 115.382C138.445 115.084 137.639 114.93 136.824 114.93C136.009 114.93 135.203 115.084 134.461 115.382C133.719 115.68 133.057 116.114 132.522 116.656C131.373 117.796 130.785 119.254 130.785 121.032C130.785 122.81 131.373 124.28 132.519 125.408C133.06 125.943 133.723 126.37 134.464 126.663C135.206 126.956 136.009 127.107 136.821 127.107C137.634 127.107 138.437 126.956 139.178 126.663C139.919 126.37 140.582 125.943 141.123 125.408C142.272 124.268 142.86 122.81 142.86 121.032C142.86 119.254 142.275 117.796 141.126 116.656ZM158.069 115.169H154.275V120.666H158.069C159.459 120.666 160.608 119.419 160.608 117.906C160.608 116.393 159.459 115.169 158.069 115.169ZM191.402 115.169H187.608V120.666H191.402C192.792 120.666 193.941 119.419 193.941 117.906C193.941 116.393 192.784 115.169 191.394 115.169H191.402ZM141.126 116.656C140.59 116.114 139.929 115.68 139.187 115.382C138.445 115.084 137.639 114.93 136.824 114.93C136.009 114.93 135.203 115.084 134.461 115.382C133.719 115.68 133.057 116.114 132.522 116.656C131.373 117.796 130.785 119.254 130.785 121.032C130.785 122.81 131.373 124.28 132.519 125.408C133.06 125.943 133.723 126.37 134.464 126.663C135.206 126.956 136.009 127.107 136.821 127.107C137.634 127.107 138.437 126.956 139.178 126.663C139.919 126.37 140.582 125.943 141.123 125.408C142.272 124.268 142.86 122.81 142.86 121.032C142.86 119.254 142.275 117.796 141.126 116.656ZM158.069 115.169H154.275V120.666H158.069C159.459 120.666 160.608 119.419 160.608 117.906C160.608 116.393 159.459 115.169 158.069 115.169ZM191.402 115.169H187.608V120.666H191.402C192.792 120.666 193.941 119.419 193.941 117.906C193.941 116.393 192.784 115.169 191.394 115.169H191.402ZM208.941 115.965L206.388 123.563H211.518L208.941 115.965ZM232.442 116.871C231.972 116.348 231.369 115.929 230.683 115.648C229.996 115.367 229.245 115.232 228.488 115.253H224.746V126.821H228.488C229.241 126.841 229.989 126.709 230.675 126.435C231.36 126.16 231.965 125.75 232.442 125.236C233.458 124.149 233.968 122.767 233.968 121.044C233.968 119.321 233.458 117.93 232.442 116.871ZM141.115 116.661C140.579 116.119 139.918 115.684 139.176 115.387C138.434 115.089 137.628 114.935 136.813 114.935C135.998 114.935 135.192 115.089 134.45 115.387C133.708 115.684 133.047 116.119 132.511 116.661C131.362 117.801 130.774 119.259 130.774 121.037C130.774 122.815 131.373 124.28 132.519 125.408C133.06 125.943 133.723 126.37 134.464 126.663C135.206 126.956 136.009 127.107 136.821 127.107C137.634 127.107 138.437 126.956 139.178 126.663C139.919 126.37 140.582 125.943 141.123 125.408C142.272 124.268 142.86 122.81 142.86 121.032C142.86 119.254 142.275 117.796 141.126 116.656L141.115 116.661ZM158.058 115.174H154.264V120.671H158.058C159.448 120.671 160.597 119.424 160.597 117.911C160.597 116.398 159.459 115.169 158.069 115.169L158.058 115.174ZM191.391 115.174H187.597V120.671H191.391C192.781 120.671 193.93 119.424 193.93 117.911C193.93 116.398 192.784 115.169 191.394 115.169L191.391 115.174ZM208.941 115.965L206.388 123.563H211.518L208.941 115.965ZM232.442 116.871C231.972 116.348 231.369 115.929 230.683 115.648C229.996 115.367 229.245 115.232 228.488 115.253H224.746V126.821H228.488C229.241 126.841 229.989 126.709 230.675 126.435C231.36 126.16 231.965 125.75 232.442 125.236C233.458 124.149 233.968 122.767 233.968 121.044C233.968 119.321 233.458 117.93 232.442 116.871ZM100.498 111.111L94.0696 118.544L95.4978 120.274L107.858 135.238L109.755 137.528H259.268V111.106L100.498 111.111ZM241.556 111.752H252.995V115.253H245.255V119.206H252.336V122.655H245.255V126.821H253.138V130.322H241.567L241.556 111.752ZM221.057 111.752H228.488C231.055 111.752 233.193 112.655 234.903 114.431C236.613 116.207 237.494 118.41 237.494 121.037C237.494 123.664 236.64 125.865 234.903 127.643C233.166 129.421 231.055 130.322 228.488 130.322H221.057V111.752ZM206.654 111.752H211.226L217.8 130.322H213.789L212.667 126.976H205.212L204.09 130.322H200.106L206.654 111.752ZM183.912 111.752H191.394C192.235 111.746 193.066 111.905 193.829 112.217C194.592 112.529 195.267 112.987 195.806 113.556C197.01 114.753 197.659 116.306 197.621 117.906C197.621 120.215 196.18 122.337 194.014 123.319L198.158 130.322H194.174L190.407 123.869H187.6V130.322H183.912V111.752ZM166.649 111.752H180.413V115.253H175.361V130.322H171.673V115.248H166.649V111.752ZM150.587 111.752H158.069C158.91 111.746 159.742 111.905 160.504 112.217C161.267 112.529 161.942 112.987 162.481 113.556C163.685 114.753 164.334 116.306 164.297 117.906C164.297 120.215 162.855 122.337 160.69 123.319L164.83 130.322H160.849L157.08 123.869H154.275V130.322H150.587V111.752ZM129.928 114.192C131.825 112.309 134.126 111.381 136.825 111.381C139.524 111.381 141.822 112.309 143.719 114.192C145.616 116.075 146.551 118.331 146.551 121.037C146.551 123.742 145.616 126.025 143.719 127.908C141.822 129.791 139.524 130.692 136.825 130.692C134.126 130.692 131.828 129.765 129.928 127.908C128.029 126.051 127.123 123.742 127.123 121.037C127.123 118.331 128.058 116.044 129.928 114.187V114.192ZM110.901 111.752H117.885C118.745 111.744 119.597 111.901 120.382 112.212C121.166 112.524 121.864 112.983 122.427 113.556C123.618 114.793 124.272 116.363 124.272 117.986C124.272 119.609 123.618 121.179 122.427 122.416C121.864 122.989 121.166 123.447 120.381 123.758C119.597 124.069 118.745 124.225 117.885 124.216H114.59V130.317H110.901V111.752ZM232.442 125.236C233.458 124.149 233.968 122.767 233.968 121.044C233.968 119.321 233.458 117.937 232.442 116.878C231.972 116.355 231.369 115.937 230.683 115.656C229.996 115.375 229.245 115.239 228.488 115.26H224.746V126.828H228.488C229.242 126.848 229.99 126.715 230.676 126.439C231.361 126.163 231.966 125.751 232.442 125.236ZM208.941 115.965L206.388 123.563H211.518L208.941 115.965ZM193.922 117.901C193.922 116.391 192.773 115.169 191.383 115.169H187.589V120.666H191.383C192.784 120.662 193.933 119.414 193.933 117.901H193.922ZM160.589 117.901C160.589 116.391 159.44 115.169 158.05 115.169H154.256V120.666H158.05C159.459 120.662 160.608 119.414 160.608 117.901H160.589ZM136.806 127.107C137.621 127.122 138.429 126.978 139.173 126.684C139.917 126.39 140.577 125.954 141.107 125.408C142.256 124.268 142.844 122.81 142.844 121.032C142.844 119.254 142.256 117.796 141.107 116.656C140.571 116.114 139.91 115.68 139.168 115.382C138.426 115.084 137.62 114.93 136.805 114.93C135.99 114.93 135.184 115.084 134.442 115.382C133.7 115.68 133.039 116.114 132.503 116.656C131.354 117.796 130.766 119.254 130.766 121.032C130.766 122.81 131.373 124.28 132.519 125.408C133.05 125.955 133.711 126.391 134.456 126.684C135.2 126.978 136.01 127.123 136.825 127.107H136.806ZM208.941 115.965L206.388 123.563H211.518L208.941 115.965ZM191.383 115.169H187.589V120.666H191.383C192.773 120.666 193.922 119.419 193.922 117.906C193.922 116.393 192.784 115.169 191.394 115.169H191.383ZM158.05 115.169H154.256V120.666H158.05C159.44 120.666 160.589 119.419 160.589 117.906C160.589 116.393 159.459 115.169 158.069 115.169H158.05ZM141.107 116.656C140.571 116.114 139.91 115.68 139.168 115.382C138.426 115.084 137.62 114.93 136.805 114.93C135.99 114.93 135.184 115.084 134.442 115.382C133.7 115.68 133.039 116.114 132.503 116.656C131.354 117.796 130.766 119.254 130.766 121.032C130.766 122.81 131.373 124.28 132.519 125.408C133.06 125.943 133.723 126.37 134.464 126.663C135.206 126.956 136.009 127.107 136.821 127.107C137.634 127.107 138.437 126.956 139.178 126.663C139.919 126.37 140.582 125.943 141.123 125.408C142.272 124.268 142.86 122.81 142.86 121.032C142.86 119.254 142.275 117.796 141.126 116.656H141.107ZM208.941 115.965L206.388 123.563H211.518L208.941 115.965ZM191.383 115.169H187.589V120.666H191.383C192.773 120.666 193.922 119.419 193.922 117.906C193.922 116.393 192.784 115.169 191.394 115.169H191.383ZM158.05 115.169H154.256V120.666H158.05C159.44 120.666 160.589 119.419 160.589 117.906C160.589 116.393 159.459 115.169 158.069 115.169H158.05ZM141.107 116.656C140.571 116.114 139.91 115.68 139.168 115.382C138.426 115.084 137.62 114.93 136.805 114.93C135.99 114.93 135.184 115.084 134.442 115.382C133.7 115.68 133.039 116.114 132.503 116.656C131.354 117.796 130.766 119.254 130.766 121.032C130.766 122.81 131.373 124.28 132.519 125.408C133.06 125.943 133.723 126.37 134.464 126.663C135.206 126.956 136.009 127.107 136.821 127.107C137.634 127.107 138.437 126.956 139.178 126.663C139.919 126.37 140.582 125.943 141.123 125.408C142.272 124.268 142.86 122.81 142.86 121.032C142.86 119.254 142.275 117.796 141.126 116.656H141.107ZM158.05 115.169H154.256V120.666H158.05C159.44 120.666 160.589 119.419 160.589 117.906C160.589 116.393 159.459 115.169 158.069 115.169H158.05ZM141.107 116.656C140.571 116.114 139.91 115.68 139.168 115.382C138.426 115.084 137.62 114.93 136.805 114.93C135.99 114.93 135.184 115.084 134.442 115.382C133.7 115.68 133.039 116.114 132.503 116.656C131.354 117.796 130.766 119.254 130.766 121.032C130.766 122.81 131.373 124.28 132.519 125.408C133.06 125.943 133.723 126.37 134.464 126.663C135.206 126.956 136.009 127.107 136.821 127.107C137.634 127.107 138.437 126.956 139.178 126.663C139.919 126.37 140.582 125.943 141.123 125.408C142.272 124.268 142.86 122.81 142.86 121.032C142.86 119.254 142.275 117.796 141.126 116.656H141.107ZM158.05 115.169H154.256V120.666H158.05C159.44 120.666 160.589 119.419 160.589 117.906C160.589 116.393 159.459 115.169 158.069 115.169H158.05ZM141.107 116.656C140.571 116.114 139.91 115.68 139.168 115.382C138.426 115.084 137.62 114.93 136.805 114.93C135.99 114.93 135.184 115.084 134.442 115.382C133.7 115.68 133.039 116.114 132.503 116.656C131.354 117.796 130.766 119.254 130.766 121.032C130.766 122.81 131.373 124.28 132.519 125.408C133.06 125.943 133.723 126.37 134.464 126.663C135.206 126.956 136.009 127.107 136.821 127.107C137.634 127.107 138.437 126.956 139.178 126.663C139.919 126.37 140.582 125.943 141.123 125.408C142.272 124.268 142.86 122.81 142.86 121.032C142.86 119.254 142.275 117.796 141.126 116.656H141.107ZM141.107 116.656C140.571 116.114 139.91 115.68 139.168 115.382C138.426 115.084 137.62 114.93 136.805 114.93C135.99 114.93 135.184 115.084 134.442 115.382C133.7 115.68 133.039 116.114 132.503 116.656C131.354 117.796 130.766 119.254 130.766 121.032C130.766 122.81 131.373 124.28 132.519 125.408C133.06 125.943 133.723 126.37 134.464 126.663C135.206 126.956 136.009 127.107 136.821 127.107C137.634 127.107 138.437 126.956 139.178 126.663C139.919 126.37 140.582 125.943 141.123 125.408C142.272 124.268 142.86 122.81 142.86 121.032C142.86 119.254 142.275 117.796 141.126 116.656H141.107ZM141.107 116.656C140.571 116.114 139.91 115.68 139.168 115.382C138.426 115.084 137.62 114.93 136.805 114.93C135.99 114.93 135.184 115.084 134.442 115.382C133.7 115.68 133.039 116.114 132.503 116.656C131.354 117.796 130.766 119.254 130.766 121.032C130.766 122.81 131.373 124.28 132.519 125.408C133.06 125.943 133.723 126.37 134.464 126.663C135.206 126.956 136.009 127.107 136.821 127.107C137.634 127.107 138.437 126.956 139.178 126.663C139.919 126.37 140.582 125.943 141.123 125.408C142.272 124.268 142.86 122.81 142.86 121.032C142.86 119.254 142.275 117.796 141.126 116.656H141.107Z" fill="white"/>
<path d="M120.595 117.982C120.595 119.574 119.446 120.793 117.869 120.793H114.59V115.169H117.885C119.454 115.169 120.595 116.364 120.595 117.982Z" fill="white"/>
<path d="M141.126 116.656C140.59 116.114 139.929 115.679 139.187 115.382C138.445 115.084 137.639 114.93 136.824 114.93C136.009 114.93 135.203 115.084 134.461 115.382C133.719 115.679 133.057 116.114 132.522 116.656C131.373 117.796 130.785 119.254 130.785 121.032C130.785 122.81 131.373 124.28 132.519 125.408C133.06 125.942 133.723 126.37 134.464 126.663C135.206 126.955 136.009 127.107 136.821 127.107C137.634 127.107 138.437 126.955 139.178 126.663C139.919 126.37 140.582 125.942 141.123 125.408C142.272 124.268 142.86 122.81 142.86 121.032C142.86 119.254 142.275 117.796 141.126 116.656ZM158.069 115.169H154.275V120.666H158.069C159.459 120.666 160.608 119.418 160.608 117.906C160.608 116.393 159.459 115.169 158.069 115.169ZM158.069 115.169H154.275V120.666H158.069C159.459 120.666 160.608 119.418 160.608 117.906C160.608 116.393 159.459 115.169 158.069 115.169ZM141.126 116.656C140.59 116.114 139.929 115.679 139.187 115.382C138.445 115.084 137.639 114.93 136.824 114.93C136.009 114.93 135.203 115.084 134.461 115.382C133.719 115.679 133.057 116.114 132.522 116.656C131.373 117.796 130.785 119.254 130.785 121.032C130.785 122.81 131.373 124.28 132.519 125.408C133.06 125.942 133.723 126.37 134.464 126.663C135.206 126.955 136.009 127.107 136.821 127.107C137.634 127.107 138.437 126.955 139.178 126.663C139.919 126.37 140.582 125.942 141.123 125.408C142.272 124.268 142.86 122.81 142.86 121.032C142.86 119.254 142.275 117.796 141.126 116.656ZM141.126 116.656C140.59 116.114 139.929 115.679 139.187 115.382C138.445 115.084 137.639 114.93 136.824 114.93C136.009 114.93 135.203 115.084 134.461 115.382C133.719 115.679 133.057 116.114 132.522 116.656C131.373 117.796 130.785 119.254 130.785 121.032C130.785 122.81 131.373 124.28 132.519 125.408C133.06 125.942 133.723 126.37 134.464 126.663C135.206 126.955 136.009 127.107 136.821 127.107C137.634 127.107 138.437 126.955 139.178 126.663C139.919 126.37 140.582 125.942 141.123 125.408C142.272 124.268 142.86 122.81 142.86 121.032C142.86 119.254 142.275 117.796 141.126 116.656ZM158.069 115.169H154.275V120.666H158.069C159.459 120.666 160.608 119.418 160.608 117.906C160.608 116.393 159.459 115.169 158.069 115.169ZM191.402 115.169H187.608V120.666H191.402C192.792 120.666 193.941 119.418 193.941 117.906C193.941 116.393 192.784 115.169 191.394 115.169H191.402ZM191.402 115.169H187.608V120.666H191.402C192.792 120.666 193.941 119.418 193.941 117.906C193.941 116.393 192.784 115.169 191.394 115.169H191.402ZM158.069 115.169H154.275V120.666H158.069C159.459 120.666 160.608 119.418 160.608 117.906C160.608 116.393 159.459 115.169 158.069 115.169ZM141.126 116.656C140.59 116.114 139.929 115.679 139.187 115.382C138.445 115.084 137.639 114.93 136.824 114.93C136.009 114.93 135.203 115.084 134.461 115.382C133.719 115.679 133.057 116.114 132.522 116.656C131.373 117.796 130.785 119.254 130.785 121.032C130.785 122.81 131.373 124.28 132.519 125.408C133.06 125.942 133.723 126.37 134.464 126.663C135.206 126.955 136.009 127.107 136.821 127.107C137.634 127.107 138.437 126.955 139.178 126.663C139.919 126.37 140.582 125.942 141.123 125.408C142.272 124.268 142.86 122.81 142.86 121.032C142.86 119.254 142.275 117.796 141.126 116.656ZM141.126 116.656C140.59 116.114 139.929 115.679 139.187 115.382C138.445 115.084 137.639 114.93 136.824 114.93C136.009 114.93 135.203 115.084 134.461 115.382C133.719 115.679 133.057 116.114 132.522 116.656C131.373 117.796 130.785 119.254 130.785 121.032C130.785 122.81 131.373 124.28 132.519 125.408C133.06 125.942 133.723 126.37 134.464 126.663C135.206 126.955 136.009 127.107 136.821 127.107C137.634 127.107 138.437 126.955 139.178 126.663C139.919 126.37 140.582 125.942 141.123 125.408C142.272 124.268 142.86 122.81 142.86 121.032C142.86 119.254 142.275 117.796 141.126 116.656ZM158.069 115.169H154.275V120.666H158.069C159.459 120.666 160.608 119.418 160.608 117.906C160.608 116.393 159.459 115.169 158.069 115.169ZM191.402 115.169H187.608V120.666H191.402C192.792 120.666 193.941 119.418 193.941 117.906C193.941 116.393 192.784 115.169 191.394 115.169H191.402ZM208.941 115.965L206.388 123.563H211.518L208.941 115.965ZM232.442 116.871C231.972 116.348 231.369 115.929 230.683 115.648C229.996 115.367 229.245 115.232 228.488 115.253H224.746V126.82H228.488C229.241 126.841 229.989 126.709 230.674 126.434C231.36 126.159 231.965 125.749 232.442 125.236C233.458 124.148 233.968 122.767 233.968 121.044C233.968 119.321 233.458 117.93 232.442 116.871ZM232.442 116.871C231.972 116.348 231.369 115.929 230.683 115.648C229.996 115.367 229.245 115.232 228.488 115.253H224.746V126.82H228.488C229.241 126.841 229.989 126.709 230.674 126.434C231.36 126.159 231.965 125.749 232.442 125.236C233.458 124.148 233.968 122.767 233.968 121.044C233.968 119.321 233.458 117.93 232.442 116.871ZM208.941 115.965L206.388 123.563H211.518L208.941 115.965ZM191.383 115.169H187.589V120.666H191.383C192.773 120.666 193.922 119.418 193.922 117.906C193.922 116.393 192.784 115.169 191.394 115.169H191.383ZM158.05 115.169H154.256V120.666H158.05C159.44 120.666 160.589 119.418 160.589 117.906C160.589 116.393 159.459 115.169 158.069 115.169H158.05ZM141.107 116.656C140.571 116.114 139.91 115.679 139.168 115.382C138.426 115.084 137.62 114.93 136.805 114.93C135.99 114.93 135.184 115.084 134.442 115.382C133.7 115.679 133.039 116.114 132.503 116.656C131.354 117.796 130.766 119.254 130.766 121.032C130.766 122.81 131.373 124.28 132.519 125.408C133.06 125.942 133.723 126.37 134.464 126.663C135.206 126.955 136.009 127.107 136.821 127.107C137.634 127.107 138.437 126.955 139.178 126.663C139.919 126.37 140.582 125.942 141.123 125.408C142.272 124.268 142.86 122.81 142.86 121.032C142.86 119.254 142.275 117.796 141.126 116.656H141.107ZM102.476 108.819L100.498 111.106L94.0696 118.544L95.4978 120.274L107.858 135.238H256.962V108.819H102.476ZM122.419 122.411C121.857 122.984 121.161 123.442 120.378 123.754C119.595 124.066 118.744 124.223 117.885 124.215H114.59V130.317H110.901V111.747H117.885C118.745 111.738 119.597 111.896 120.382 112.207C121.166 112.519 121.864 112.977 122.427 113.551C123.618 114.788 124.272 116.358 124.272 117.981C124.272 119.604 123.618 121.174 122.427 122.411H122.419ZM143.719 127.908C141.822 129.764 139.524 130.692 136.825 130.692C134.126 130.692 131.827 129.764 129.928 127.908C128.058 126.024 127.123 123.742 127.123 121.037C127.123 118.331 128.058 116.049 129.928 114.192C131.798 112.335 134.126 111.374 136.825 111.374C139.524 111.374 141.822 112.301 143.719 114.184C145.616 116.068 146.551 118.324 146.551 121.029C146.551 123.735 145.616 126.02 143.719 127.903V127.908ZM160.849 130.322L157.08 123.869H154.275V130.322H150.587V111.751H158.069C158.91 111.746 159.742 111.905 160.504 112.217C161.267 112.529 161.942 112.986 162.481 113.556C163.685 114.752 164.334 116.306 164.297 117.906C164.297 120.214 162.855 122.337 160.689 123.319L164.83 130.322H160.849ZM180.413 115.253H175.361V130.322H171.673V115.248H166.649V111.747H180.413V115.253ZM194.174 130.322L190.407 123.869H187.6V130.322H183.911V111.751H191.394C192.235 111.746 193.066 111.905 193.829 112.217C194.592 112.529 195.267 112.986 195.806 113.556C197.01 114.752 197.659 116.306 197.621 117.906C197.621 120.214 196.18 122.337 194.014 123.319L198.158 130.322H194.174ZM213.789 130.322L212.667 126.976H205.212L204.09 130.322H200.106L206.654 111.751H211.226L217.8 130.322H213.789ZM234.903 127.642C233.193 129.418 231.055 130.322 228.488 130.322H221.057V111.751H228.488C231.055 111.751 233.193 112.655 234.903 114.431C236.613 116.206 237.494 118.41 237.494 121.037C237.494 123.663 236.64 125.86 234.903 127.638V127.642ZM253.128 130.322H241.556V111.751H252.995V115.253H245.255V119.206H252.336V122.655H245.255V126.82H253.138L253.128 130.322ZM228.488 115.253H224.746V126.82H228.488C229.241 126.841 229.989 126.709 230.674 126.434C231.36 126.159 231.965 125.749 232.442 125.236C233.458 124.148 233.968 122.767 233.968 121.044C233.968 119.321 233.458 117.937 232.442 116.878C231.973 116.353 231.371 115.932 230.685 115.649C229.998 115.366 229.246 115.228 228.488 115.248V115.253ZM206.388 123.563H211.518L208.941 115.965L206.388 123.563ZM191.394 115.179H187.6V120.676H191.394C192.784 120.676 193.933 119.428 193.933 117.915C193.933 116.402 192.784 115.169 191.394 115.169V115.179ZM158.061 115.179H154.267V120.676H158.061C159.451 120.676 160.6 119.428 160.6 117.915C160.6 116.402 159.459 115.169 158.069 115.169L158.061 115.179ZM136.817 114.94C136.002 114.929 135.194 115.078 134.451 115.374C133.708 115.671 133.048 116.108 132.519 116.656C131.37 117.796 130.782 119.254 130.782 121.032C130.782 122.81 131.373 124.28 132.519 125.408C133.06 125.942 133.723 126.37 134.464 126.663C135.206 126.955 136.009 127.107 136.821 127.107C137.634 127.107 138.437 126.955 139.178 126.663C139.919 126.37 140.582 125.942 141.123 125.408C142.272 124.268 142.86 122.81 142.86 121.032C142.86 119.254 142.272 117.796 141.123 116.656C140.595 116.106 139.936 115.667 139.193 115.368C138.45 115.07 137.642 114.92 136.825 114.93L136.817 114.94ZM141.118 116.665C140.582 116.123 139.921 115.689 139.179 115.391C138.437 115.093 137.631 114.939 136.816 114.939C136 114.939 135.195 115.093 134.453 115.391C133.711 115.689 133.049 116.123 132.514 116.665C131.365 117.805 130.777 119.263 130.777 121.041C130.777 122.819 131.373 124.28 132.519 125.408C133.06 125.942 133.723 126.37 134.464 126.663C135.206 126.955 136.009 127.107 136.821 127.107C137.634 127.107 138.437 126.955 139.178 126.663C139.919 126.37 140.582 125.942 141.123 125.408C142.272 124.268 142.86 122.81 142.86 121.032C142.86 119.254 142.275 117.796 141.126 116.656L141.118 116.665ZM158.061 115.179H154.267V120.676H158.061C159.451 120.676 160.6 119.428 160.6 117.915C160.6 116.402 159.459 115.169 158.069 115.169L158.061 115.179ZM191.394 115.179H187.6V120.676H191.394C192.784 120.676 193.933 119.428 193.933 117.915C193.933 116.402 192.784 115.169 191.394 115.169V115.179ZM208.941 115.965L206.388 123.563H211.518L208.941 115.965ZM208.941 115.965L206.388 123.563H211.518L208.941 115.965ZM191.383 115.169H187.589V120.666H191.383C192.773 120.666 193.922 119.418 193.922 117.906C193.922 116.393 192.784 115.169 191.394 115.169H191.383ZM158.05 115.169H154.256V120.666H158.05C159.44 120.666 160.589 119.418 160.589 117.906C160.589 116.393 159.459 115.169 158.069 115.169H158.05ZM141.107 116.656C140.571 116.114 139.91 115.679 139.168 115.382C138.426 115.084 137.62 114.93 136.805 114.93C135.99 114.93 135.184 115.084 134.442 115.382C133.7 115.679 133.039 116.114 132.503 116.656C131.354 117.796 130.766 119.254 130.766 121.032C130.766 122.81 131.373 124.28 132.519 125.408C133.06 125.942 133.723 126.37 134.464 126.663C135.206 126.955 136.009 127.107 136.821 127.107C137.634 127.107 138.437 126.955 139.178 126.663C139.919 126.37 140.582 125.942 141.123 125.408C142.272 124.268 142.86 122.81 142.86 121.032C142.86 119.254 142.275 117.796 141.126 116.656H141.107ZM141.107 116.656C140.571 116.114 139.91 115.679 139.168 115.382C138.426 115.084 137.62 114.93 136.805 114.93C135.99 114.93 135.184 115.084 134.442 115.382C133.7 115.679 133.039 116.114 132.503 116.656C131.354 117.796 130.766 119.254 130.766 121.032C130.766 122.81 131.373 124.28 132.519 125.408C133.06 125.942 133.723 126.37 134.464 126.663C135.206 126.955 136.009 127.107 136.821 127.107C137.634 127.107 138.437 126.955 139.178 126.663C139.919 126.37 140.582 125.942 141.123 125.408C142.272 124.268 142.86 122.81 142.86 121.032C142.86 119.254 142.275 117.796 141.126 116.656H141.107ZM158.05 115.169H154.256V120.666H158.05C159.44 120.666 160.589 119.418 160.589 117.906C160.589 116.393 159.459 115.169 158.069 115.169H158.05ZM158.05 115.169H154.256V120.666H158.05C159.44 120.666 160.589 119.418 160.589 117.906C160.589 116.393 159.459 115.169 158.069 115.169H158.05ZM141.107 116.656C140.571 116.114 139.91 115.679 139.168 115.382C138.426 115.084 137.62 114.93 136.805 114.93C135.99 114.93 135.184 115.084 134.442 115.382C133.7 115.679 133.039 116.114 132.503 116.656C131.354 117.796 130.766 119.254 130.766 121.032C130.766 122.81 131.373 124.28 132.519 125.408C133.06 125.942 133.723 126.37 134.464 126.663C135.206 126.955 136.009 127.107 136.821 127.107C137.634 127.107 138.437 126.955 139.178 126.663C139.919 126.37 140.582 125.942 141.123 125.408C142.272 124.268 142.86 122.81 142.86 121.032C142.86 119.254 142.275 117.796 141.126 116.656H141.107ZM141.107 116.656C140.571 116.114 139.91 115.679 139.168 115.382C138.426 115.084 137.62 114.93 136.805 114.93C135.99 114.93 135.184 115.084 134.442 115.382C133.7 115.679 133.039 116.114 132.503 116.656C131.354 117.796 130.766 119.254 130.766 121.032C130.766 122.81 131.373 124.28 132.519 125.408C133.06 125.942 133.723 126.37 134.464 126.663C135.206 126.955 136.009 127.107 136.821 127.107C137.634 127.107 138.437 126.955 139.178 126.663C139.919 126.37 140.582 125.942 141.123 125.408C142.272 124.268 142.86 122.81 142.86 121.032C142.86 119.254 142.275 117.796 141.126 116.656H141.107ZM141.107 116.656C140.571 116.114 139.91 115.679 139.168 115.382C138.426 115.084 137.62 114.93 136.805 114.93C135.99 114.93 135.184 115.084 134.442 115.382C133.7 115.679 133.039 116.114 132.503 116.656C131.354 117.796 130.766 119.254 130.766 121.032C130.766 122.81 131.373 124.28 132.519 125.408C133.06 125.942 133.723 126.37 134.464 126.663C135.206 126.955 136.009 127.107 136.821 127.107C137.634 127.107 138.437 126.955 139.178 126.663C139.919 126.37 140.582 125.942 141.123 125.408C142.272 124.268 142.86 122.81 142.86 121.032C142.86 119.254 142.275 117.796 141.126 116.656H141.107Z" fill="white"/>
<path d="M77.235 88.9604H48.8423C48.8423 88.9604 64.8313 100.877 76.5737 116.923C76.5737 116.923 61.0806 139.456 48.8423 147.487H75.861C75.861 147.487 71.4572 145.931 72.5331 142.133C73.609 138.335 79.6794 131.254 84.869 127.628C84.869 127.628 94.2023 135.456 108.953 150.651C123.703 165.847 129.549 167.56 133.614 165.359C136.467 163.813 135.719 156.681 128.785 159.054C126.159 159.955 123.636 159.143 92.0045 118.302L117.37 88.9604H92.0126C92.0126 88.9604 94.5248 91.4938 92.0126 96.2117C89.5004 100.93 84.2159 106.862 84.2159 106.862C84.2159 106.862 77.8854 102.488 75.0019 95.2916C73.9559 92.6458 77.235 88.9604 77.235 88.9604Z" fill="white"/>
<path d="M78.4408 95.8676C77.6901 94.111 80.7253 90.3706 80.7253 90.3706C79.7957 90.4818 78.9244 90.8336 78.2216 91.3815C77.5188 91.9295 77.016 92.6489 76.7768 93.4489C76.1508 95.3848 78.4408 95.8676 78.4408 95.8676Z" fill="white"/>
<path d="M90.4168 95.4901C91.5008 94.2569 92.3002 92.8898 91.91 91.1571C91.4655 89.1805 89.1729 89.6824 89.1729 89.6824C90.7528 90.9372 90.4168 95.4901 90.4168 95.4901Z" fill="white"/>
<path d="M122.07 89.625H119.07L94.0725 118.546L95.5007 120.277L122.07 89.625Z" fill="white"/>
<path d="M47.7314 91.0327V95.8677C60.4684 105.189 71.6851 120.117 71.6851 120.117L73.8531 117.437C62.2299 102.07 47.7314 91.0327 47.7314 91.0327Z" fill="white"/>
<path d="M136.56 166.153C136.56 166.153 132.828 170.89 125.449 167.701C116.43 163.815 91.9179 135.752 85.3652 130.317C85.3652 130.317 75.0834 137.224 74.498 143.44L80.1755 137.743H88.4979C88.4979 137.743 119.538 173.368 129.316 172.897C136.836 172.536 136.56 166.153 136.56 166.153Z" fill="white"/>
<path d="M135.85 146.56H131.148V141.438H129.091V154.975H131.148V148.582H135.85V154.975H137.907V141.438H135.85V146.56Z" fill="white"/>
<path d="M149.481 145.25C149.277 144.467 148.922 143.721 148.432 143.044C148.007 142.474 147.435 142.001 146.763 141.663C146.082 141.339 145.321 141.168 144.547 141.166C143.773 141.163 143.011 141.329 142.327 141.648C141.645 141.987 141.066 142.467 140.641 143.046C140.157 143.728 139.803 144.475 139.592 145.257C139.335 146.225 139.212 147.217 139.227 148.211C139.214 149.198 139.335 150.182 139.587 151.144C139.788 151.93 140.143 152.68 140.636 153.359C141.058 153.944 141.637 154.428 142.321 154.769C142.998 155.081 143.75 155.245 144.513 155.247C145.276 155.25 146.029 155.091 146.709 154.784C147.41 154.439 148.002 153.947 148.432 153.35C148.931 152.668 149.288 151.914 149.489 151.122C149.739 150.164 149.859 149.183 149.847 148.199C149.86 147.207 149.737 146.216 149.481 145.25ZM146.831 152.021C146.254 152.86 145.506 153.268 144.541 153.268C143.576 153.268 142.828 152.86 142.248 152.021C141.668 151.182 141.346 149.87 141.346 148.211C141.337 147.462 141.416 146.714 141.581 145.979C141.702 145.418 141.924 144.878 142.24 144.38C142.482 143.999 142.825 143.676 143.24 143.438C143.637 143.242 144.084 143.139 144.538 143.139C144.993 143.139 145.44 143.242 145.836 143.438C146.252 143.67 146.595 143.989 146.833 144.368C147.147 144.863 147.369 145.399 147.492 145.955C147.66 146.694 147.74 147.447 147.73 148.202C147.73 149.872 147.424 151.153 146.831 152.021Z" fill="white"/>
<path d="M157.76 149.868C157.767 150.352 157.733 150.836 157.66 151.316C157.603 151.674 157.482 152.021 157.302 152.346C157.138 152.64 156.877 152.883 156.554 153.044C156.206 153.209 155.816 153.291 155.421 153.283C155.023 153.294 154.628 153.212 154.278 153.044C153.964 152.875 153.711 152.632 153.549 152.341C153.364 152.017 153.242 151.668 153.188 151.309C153.117 150.815 153.084 150.317 153.091 149.82V141.438H151.034V149.824C151.019 150.627 151.103 151.428 151.286 152.214C151.437 152.841 151.741 153.431 152.177 153.942C152.541 154.36 153.014 154.693 153.557 154.913C154.76 155.343 156.106 155.343 157.31 154.913C157.841 154.685 158.305 154.352 158.665 153.94C159.111 153.426 159.418 152.828 159.562 152.193C159.74 151.406 159.823 150.605 159.809 149.803V141.438H157.752L157.76 149.868Z" fill="white"/>
<path d="M166.936 147.497C166.627 147.391 166.231 147.272 165.76 147.145C165.288 147.019 164.909 146.906 164.595 146.811C164.2 146.7 163.857 146.479 163.616 146.182C163.371 145.822 163.254 145.406 163.28 144.987C163.267 144.745 163.311 144.502 163.409 144.276C163.507 144.049 163.658 143.843 163.852 143.67C164.053 143.501 164.291 143.371 164.552 143.286C164.812 143.2 165.09 143.163 165.367 143.175C165.946 143.177 166.515 143.312 167.017 143.567C167.516 143.811 167.963 144.13 168.337 144.509L168.418 144.595H168.928V142.15L168.803 142.081C168.29 141.797 167.735 141.578 167.153 141.431C166.537 141.271 165.898 141.191 165.256 141.192C164.701 141.185 164.152 141.286 163.646 141.487C163.14 141.688 162.691 141.985 162.329 142.356C161.559 143.135 161.15 144.142 161.183 145.176C161.174 145.654 161.243 146.13 161.389 146.591C161.514 146.979 161.713 147.346 161.977 147.676C162.22 147.978 162.523 148.238 162.871 148.445C163.221 148.646 163.598 148.806 163.993 148.923C164.443 149.055 164.806 149.162 165.096 149.232C165.386 149.301 165.698 149.401 166.044 149.516C166.429 149.623 166.759 149.845 166.977 150.145C167.192 150.496 167.295 150.893 167.275 151.292C167.29 151.549 167.248 151.807 167.15 152.05C167.053 152.294 166.902 152.517 166.706 152.709C166.332 153.058 165.76 153.237 165.004 153.237C164.407 153.223 163.822 153.08 163.302 152.821C162.675 152.523 162.122 152.117 161.676 151.626L161.595 151.538H161.091V154.083L161.215 154.155C161.746 154.453 162.31 154.702 162.898 154.898C163.606 155.119 164.353 155.224 165.104 155.209C165.743 155.226 166.377 155.112 166.958 154.877C167.468 154.647 167.921 154.328 168.288 153.94C168.655 153.542 168.931 153.086 169.101 152.597C169.285 152.085 169.376 151.551 169.372 151.015C169.399 150.259 169.199 149.51 168.792 148.844C168.369 148.219 167.713 147.743 166.936 147.497Z" fill="white"/>
<path d="M170.589 154.975H178.256V152.953H172.646V148.582H177.874V146.56H172.646V143.46H178.256V141.438H170.589V154.975Z" fill="white"/>
<path d="M184.876 147.497C184.567 147.392 184.171 147.272 183.702 147.145C183.234 147.019 182.849 146.906 182.534 146.811C182.14 146.7 181.797 146.479 181.556 146.182C181.312 145.822 181.195 145.406 181.223 144.987C181.209 144.745 181.252 144.503 181.35 144.276C181.448 144.049 181.599 143.843 181.792 143.67C181.993 143.502 182.232 143.371 182.492 143.286C182.752 143.201 183.029 143.164 183.307 143.176C183.886 143.177 184.455 143.312 184.957 143.568C185.456 143.811 185.903 144.13 186.277 144.509L186.358 144.595H186.87V142.15L186.743 142.081C186.23 141.797 185.675 141.578 185.093 141.431C184.477 141.271 183.838 141.191 183.196 141.192C182.636 141.18 182.081 141.277 181.569 141.477C181.058 141.676 180.603 141.973 180.236 142.346C179.466 143.126 179.057 144.133 179.09 145.166C179.081 145.644 179.151 146.121 179.296 146.581C179.421 146.97 179.62 147.337 179.884 147.666C180.128 147.969 180.432 148.23 180.781 148.436C181.129 148.637 181.506 148.797 181.9 148.914C182.353 149.045 182.713 149.153 183.003 149.222C183.293 149.292 183.605 149.392 183.952 149.507C184.336 149.613 184.666 149.836 184.884 150.135C185.099 150.487 185.202 150.883 185.182 151.282C185.198 151.54 185.155 151.798 185.058 152.041C184.96 152.284 184.809 152.508 184.613 152.7C184.239 153.049 183.667 153.228 182.911 153.228C182.314 153.214 181.73 153.071 181.209 152.812C180.582 152.514 180.029 152.107 179.583 151.617L179.502 151.529H178.995V154.074L179.12 154.146C179.651 154.443 180.214 154.692 180.803 154.889C181.511 155.11 182.258 155.215 183.009 155.2C183.647 155.217 184.282 155.103 184.862 154.867C185.373 154.637 185.826 154.319 186.193 153.931C186.559 153.533 186.835 153.077 187.006 152.587C187.194 152.076 187.29 151.542 187.29 151.005C187.316 150.25 187.117 149.502 186.713 148.835C186.292 148.217 185.644 147.745 184.876 147.497Z" fill="white"/>
<path d="M200.781 141.438H198.724V154.975H205.871V152.953H200.781V141.438Z" fill="white"/>
<path d="M206.282 143.25H207.735V153.163H206.282V154.975H211.247V153.163H209.795V143.25H211.247V141.438H206.282V143.25Z" fill="white"/>
<path d="M217.957 148.204L215.307 141.438H212.775V154.975H214.735V144.932L217.214 151.378H218.521L221.027 144.92V154.975H223.084V141.438H220.512L217.957 148.204Z" fill="white"/>
<path d="M224.613 143.25H226.068V153.163H224.613V154.975H229.578V153.163H228.125V143.25H229.578V141.438H224.613V143.25Z" fill="white"/>
<path d="M229.944 143.46H233.77V154.975H235.827V143.46H239.654V141.438H229.944V143.46Z" fill="white"/>
<path d="M240.464 154.975H248.13V152.953H242.521V148.582H247.748V146.56H242.521V143.46H248.13V141.438H240.464V154.975Z" fill="white"/>
<path d="M258.363 144.834C257.996 143.945 257.383 143.15 256.58 142.523C256.093 142.167 255.535 141.895 254.935 141.72C254.087 141.503 253.207 141.406 252.325 141.431H249.458V154.968H252.355C253.144 154.983 253.933 154.909 254.702 154.748C255.387 154.574 256.021 154.274 256.563 153.866C257.364 153.227 257.973 152.423 258.336 151.526C258.782 150.467 259.003 149.344 258.986 148.213C259.013 147.063 258.802 145.918 258.363 144.834ZM256.485 150.656C256.272 151.245 255.888 151.775 255.371 152.193C255.008 152.488 254.572 152.704 254.097 152.824C253.543 152.947 252.973 153.006 252.401 152.998H251.517V143.4H252.401C252.95 143.389 253.497 143.448 254.027 143.574C254.465 143.694 254.873 143.885 255.23 144.138C255.79 144.546 256.208 145.086 256.436 145.694C256.737 146.498 256.879 147.341 256.856 148.187C256.884 149.025 256.759 149.861 256.485 150.663V150.656Z" fill="white"/>
<path d="M232.537 102.631C232.377 102.253 232.19 101.884 231.976 101.527C231.834 101.316 231.658 101.125 231.453 100.958C231.651 100.92 231.837 100.846 232.001 100.741C232.164 100.636 232.3 100.501 232.402 100.347C232.643 99.9534 232.758 99.5098 232.735 99.0632C232.743 98.6964 232.67 98.3317 232.518 97.9901C232.411 97.7324 232.216 97.5103 231.96 97.3543C231.606 97.2088 231.216 97.1454 230.827 97.1703H228.759V103.965H229.738V101.121H229.941C230.11 101.112 230.279 101.138 230.434 101.197C230.556 101.267 230.656 101.362 230.724 101.475C230.918 101.801 231.093 102.136 231.247 102.479L231.957 103.958H233.128L232.537 102.631ZM230.467 100.036H229.738V98.3103H230.507C230.774 98.2966 231.042 98.3142 231.304 98.3629C231.44 98.4171 231.549 98.5131 231.61 98.633C231.694 98.7965 231.732 98.9749 231.724 99.154C231.733 99.3401 231.694 99.5256 231.61 99.6966C231.553 99.8163 231.448 99.9133 231.315 99.969C231.038 100.029 230.752 100.052 230.467 100.036Z" fill="white"/>
<path d="M236.881 101.458C236.842 101.846 236.702 102.222 236.472 102.555C236.401 102.658 236.303 102.743 236.186 102.804C236.068 102.864 235.936 102.898 235.8 102.901C235.612 102.893 235.432 102.837 235.279 102.741C235.126 102.645 235.008 102.512 234.938 102.359C234.718 101.996 234.607 101.389 234.607 100.531C234.607 99.6725 234.721 99.1156 234.946 98.7571C235.02 98.6034 235.143 98.4713 235.298 98.3762C235.454 98.2811 235.637 98.2267 235.827 98.2194C235.954 98.2198 236.08 98.2467 236.193 98.2978C236.306 98.3488 236.405 98.4227 236.48 98.5134C236.69 98.7598 236.818 99.0526 236.851 99.3594L237.824 99.0344C237.753 98.5516 237.555 98.09 237.247 97.6864C237.095 97.4892 236.891 97.3277 236.653 97.216C236.414 97.1043 236.148 97.0459 235.878 97.0459C235.549 97.0462 235.226 97.1258 234.944 97.2761C234.662 97.4265 234.432 97.6419 234.279 97.8991C233.828 98.554 233.602 99.4606 233.602 100.619C233.602 101.715 233.828 102.587 234.279 103.234C234.675 103.793 235.187 104.072 235.821 104.072C236.065 104.075 236.305 104.028 236.526 103.937C236.746 103.846 236.941 103.713 237.095 103.547C237.442 103.198 237.688 102.641 237.835 101.874L236.881 101.458Z" fill="white"/>
<path d="M241.396 100.158C241.114 99.7514 240.781 99.5483 240.398 99.5483C240.227 99.5479 240.061 99.5984 239.927 99.6917C239.763 99.8097 239.63 99.9572 239.537 100.124C239.573 99.3547 239.658 98.8432 239.791 98.5899C239.925 98.3366 240.093 98.2099 240.296 98.2099C240.607 98.2099 240.783 98.4608 240.837 98.9651L241.74 98.8265C241.718 98.3734 241.554 97.9344 241.268 97.5574C241.166 97.4284 241.029 97.323 240.871 97.2502C240.713 97.1774 240.537 97.1393 240.358 97.1392C239.838 97.1392 239.411 97.4124 239.079 97.9589C238.746 98.5054 238.58 99.4009 238.58 100.645C238.58 101.871 238.74 102.747 239.06 103.274C239.38 103.805 239.783 104.068 240.268 104.068C240.498 104.062 240.723 104.002 240.918 103.895C241.114 103.788 241.274 103.637 241.382 103.458C241.674 102.946 241.828 102.381 241.832 101.808C241.836 101.235 241.691 100.669 241.407 100.153L241.396 100.158ZM240.735 102.71C240.701 102.789 240.642 102.857 240.566 102.907C240.49 102.957 240.399 102.987 240.304 102.992C240.125 102.992 239.965 102.88 239.827 102.653C239.669 102.345 239.598 102.008 239.618 101.671C239.597 101.371 239.662 101.072 239.805 100.801C239.843 100.72 239.905 100.651 239.985 100.599C240.065 100.548 240.159 100.517 240.258 100.509C240.36 100.516 240.457 100.549 240.539 100.603C240.621 100.657 240.684 100.731 240.721 100.815C240.868 101.121 240.932 101.453 240.908 101.785C240.933 102.101 240.873 102.418 240.735 102.71Z" fill="white"/>
<path d="M242.456 97.2537V98.4678H244.575C244.114 99.2978 243.763 100.172 243.529 101.073C243.271 102.021 243.129 102.99 243.106 103.965H244.006C244.013 103.269 244.087 102.575 244.225 101.89C244.361 101.159 244.57 100.439 244.849 99.7393C245.049 99.2017 245.316 98.6848 245.643 98.1977V97.2417L242.456 97.2537Z" fill="white"/>
<path d="M246.339 97.2537V98.4678H248.458C247.997 99.2978 247.646 100.172 247.412 101.073C247.155 102.021 247.014 102.99 246.992 103.965H247.892C247.899 103.269 247.973 102.575 248.111 101.89C248.247 101.159 248.456 100.439 248.735 99.7393C248.936 99.2017 249.202 98.6848 249.529 98.1977V97.2417L246.339 97.2537Z" fill="white"/>
<path d="M253.174 100.858C253.042 100.605 252.804 100.407 252.51 100.306C252.741 100.136 252.927 99.9232 253.052 99.6819C253.172 99.4286 253.232 99.156 253.228 98.8813C253.232 98.4577 253.095 98.0424 252.835 97.6863C252.73 97.5211 252.577 97.3837 252.392 97.2887C252.206 97.1937 251.995 97.1444 251.781 97.1461C251.591 97.1437 251.404 97.1805 251.234 97.2535C251.063 97.3266 250.915 97.4339 250.8 97.5668C250.492 97.9694 250.311 98.4372 250.277 98.9219L251.139 99.125C251.141 98.8871 251.212 98.6535 251.344 98.4463C251.383 98.3782 251.441 98.3203 251.513 98.2784C251.585 98.2364 251.668 98.2119 251.754 98.2073C251.832 98.2078 251.909 98.2263 251.976 98.2611C252.044 98.296 252.1 98.3458 252.139 98.4056C252.248 98.572 252.3 98.7632 252.288 98.9553C252.304 99.1871 252.231 99.4169 252.082 99.6078C252.013 99.6828 251.925 99.7422 251.825 99.7808C251.725 99.8195 251.616 99.8364 251.507 99.8301L251.407 100.891C251.54 100.833 251.684 100.8 251.832 100.793C251.931 100.798 252.027 100.827 252.109 100.877C252.19 100.927 252.255 100.995 252.296 101.075C252.436 101.316 252.501 101.584 252.485 101.854C252.502 102.143 252.434 102.43 252.288 102.689C252.245 102.773 252.178 102.846 252.092 102.9C252.006 102.953 251.905 102.984 251.8 102.99C251.705 102.986 251.613 102.961 251.532 102.917C251.452 102.872 251.386 102.81 251.342 102.736C251.194 102.514 251.114 102.261 251.111 102.003L250.209 102.156C250.222 102.658 250.402 103.145 250.727 103.558C250.847 103.715 251.008 103.843 251.197 103.932C251.386 104.021 251.596 104.069 251.811 104.07C252.046 104.063 252.275 104.003 252.477 103.896C252.679 103.79 252.847 103.64 252.965 103.46C253.303 103.003 253.472 102.464 253.447 101.919C253.457 101.551 253.363 101.186 253.174 100.858Z" fill="white"/>
<path d="M257.06 100.858C256.927 100.605 256.689 100.407 256.396 100.306C256.622 100.135 256.803 99.922 256.924 99.6819C257.045 99.4286 257.105 99.156 257.1 98.8813C257.104 98.4577 256.967 98.0424 256.707 97.6863C256.603 97.5211 256.45 97.3837 256.264 97.2887C256.079 97.1937 255.868 97.1444 255.653 97.1461C255.464 97.1437 255.276 97.1805 255.106 97.2535C254.935 97.3266 254.787 97.4339 254.672 97.5668C254.364 97.9694 254.184 98.4372 254.149 98.9219L255.011 99.125C255.013 98.8871 255.084 98.6535 255.217 98.4463C255.255 98.3782 255.313 98.3203 255.385 98.2784C255.457 98.2364 255.54 98.2119 255.626 98.2073C255.704 98.2078 255.781 98.2263 255.848 98.2611C255.916 98.296 255.972 98.3458 256.011 98.4056C256.121 98.572 256.172 98.7632 256.16 98.9553C256.176 99.1871 256.104 99.4169 255.954 99.6078C255.885 99.6828 255.797 99.7422 255.697 99.7808C255.597 99.8195 255.488 99.8364 255.379 99.8301L255.279 100.891C255.412 100.833 255.557 100.8 255.705 100.793C255.804 100.798 255.899 100.827 255.981 100.877C256.063 100.927 256.127 100.995 256.168 101.075C256.308 101.316 256.374 101.584 256.358 101.854C256.374 102.143 256.306 102.43 256.16 102.689C256.118 102.773 256.05 102.846 255.964 102.9C255.878 102.953 255.777 102.984 255.672 102.99C255.577 102.986 255.485 102.961 255.405 102.917C255.324 102.872 255.259 102.81 255.214 102.736C255.066 102.514 254.987 102.261 254.984 102.003L254.081 102.156C254.095 102.658 254.275 103.145 254.599 103.558C254.719 103.715 254.88 103.843 255.069 103.932C255.258 104.021 255.469 104.069 255.683 104.07C255.918 104.063 256.147 104.003 256.349 103.896C256.551 103.79 256.719 103.64 256.837 103.46C257.176 103.003 257.344 102.464 257.32 101.919C257.333 101.552 257.244 101.187 257.06 100.858Z" fill="white"/>
</svg>
