<svg width="248" height="92" viewBox="0 0 248 92" fill="none" xmlns="http://www.w3.org/2000/svg">
<path d="M39.1456 24.0683C40.2892 25.04 41.4789 26.0589 42.6686 27.0941C33.5901 31.764 29.2894 36.0711 29.1403 36.2207C29.1394 36.2173 29.1394 36.2139 29.1403 36.2105C29.1418 36.2037 29.1418 36.1968 29.1403 36.19C29.2487 35.6631 30.704 29.22 36.5793 21.9097C37.4058 22.5882 38.2595 23.3119 39.1456 24.0683Z" fill="#008E1F"/>
<path d="M152.291 11.8544L144.25 24.2343L136.462 36.2207C136.462 36.2207 125.099 25.8436 106.969 20.1733L110.614 16.5284H41.6875C48.6332 10.2369 59.3025 4.21608 75.5327 1.56338C116.397 -5.13397 152.291 11.8544 152.291 11.8544Z" fill="#008E1F"/>
<path d="M39.1456 24.0684C40.2892 25.0401 41.4789 26.0589 42.6686 27.0942C33.5901 31.7641 29.2894 36.0711 29.1403 36.2208C29.1394 36.2174 29.1394 36.2139 29.1403 36.2105C29.1418 36.2037 29.1418 36.1968 29.1403 36.19C29.33 35.7124 31.4465 30.2286 39.1456 24.0684Z" fill="#008E1F"/>
<path d="M144.251 24.2343L136.462 36.2206C136.462 36.2206 125.099 25.8435 106.969 20.1732L110.614 16.5283H51.5117C56.9778 13.9699 63.723 11.6083 72.0345 9.77563C104.449 2.61908 137.15 20.1117 144.251 24.2343Z" fill="#008E1F"/>
<path d="M36.135 70.7244C36.135 70.7244 36.4602 72.4013 38.2868 72.4013H64.46C64.46 72.4013 64.9152 74.6727 66.2215 75.956H37.7665C36.0022 75.956 35.547 74.1294 36.135 70.7244Z" fill="#008E1F"/>
<path d="M62.0942 44.0004L62.021 43.9184C61.5712 43.41 61.1195 42.9077 60.666 42.4116C60.4411 42.1656 60.2135 41.9196 59.9858 41.6777C59.7582 41.4358 59.5224 41.1837 59.292 40.9397C58.6173 40.2284 57.8476 39.433 57.0129 38.5986H2.30615V61.2614H45.1377L47.0727 59.2975L59.9072 46.2738L62.1186 44.0291L62.0942 44.0004ZM33.5985 39.148H45.0374V42.1513H37.2868V45.542H44.3681V48.5001H37.2868V52.0733H45.1811V55.0765H33.6094L33.5985 39.148ZM13.2085 39.148H16.016L24.0431 48.8732V39.1562H27.7314V55.0847H24.9157L16.8968 45.3452V55.0847H13.2031L13.2085 39.148Z" fill="#008E1F"/>
<path d="M62.0942 44.0006L62.021 43.9186C61.5712 43.4102 61.1195 42.9079 60.666 42.4118C60.4411 42.1658 60.2135 41.9198 59.9858 41.6779C59.7582 41.436 59.5224 41.1839 59.2921 40.9399C58.6173 40.2286 57.8476 39.4332 57.013 38.5988C56.3761 37.9613 55.7013 37.3012 54.9994 36.637H0V59.2977H47.0781L59.9127 46.274L62.124 44.0293L62.0942 44.0006ZM27.7206 55.0706H24.9157L16.8968 45.331V55.0706H13.2031V39.1421H16.0107L24.0431 48.8734V39.1564H27.7314L27.7206 55.0706ZM45.1703 55.0706H33.5986V39.1421H45.0375V42.1453H37.2869V45.536H44.3681V48.4942H37.2869V52.0673H45.1811L45.1703 55.0706Z" fill="#008E1F"/>
<path d="M129.397 43.3587C128.861 42.8939 128.2 42.5212 127.458 42.2658C126.716 42.0105 125.91 41.8784 125.095 41.8784C124.28 41.8784 123.474 42.0105 122.732 42.2658C121.99 42.5212 121.328 42.8939 120.793 43.3587C119.644 44.3366 119.056 45.5871 119.056 47.1123C119.056 48.6375 119.644 49.8982 120.79 50.8658C121.331 51.3242 121.994 51.691 122.735 51.9422C123.477 52.1933 124.28 52.3231 125.092 52.3231C125.905 52.3231 126.708 52.1933 127.449 51.9422C128.19 51.691 128.853 51.3242 129.394 50.8658C130.543 49.888 131.131 48.6375 131.131 47.1123C131.131 45.5871 130.546 44.3366 129.397 43.3587ZM146.34 42.0836H142.546V46.7986H146.34C147.73 46.7986 148.879 45.7285 148.879 44.4309C148.879 43.1332 147.73 42.0836 146.34 42.0836ZM129.397 43.3587C128.861 42.8939 128.2 42.5212 127.458 42.2658C126.716 42.0105 125.91 41.8784 125.095 41.8784C124.28 41.8784 123.474 42.0105 122.732 42.2658C121.99 42.5212 121.328 42.8939 120.793 43.3587C119.644 44.3366 119.056 45.5871 119.056 47.1123C119.056 48.6375 119.644 49.8982 120.79 50.8658C121.331 51.3242 121.994 51.691 122.735 51.9422C123.477 52.1933 124.28 52.3231 125.092 52.3231C125.905 52.3231 126.708 52.1933 127.449 51.9422C128.19 51.691 128.853 51.3242 129.394 50.8658C130.543 49.888 131.131 48.6375 131.131 47.1123C131.131 45.5871 130.546 44.3366 129.397 43.3587ZM146.34 42.0836H142.546V46.7986H146.34C147.73 46.7986 148.879 45.7285 148.879 44.4309C148.879 43.1332 147.73 42.0836 146.34 42.0836ZM129.397 43.3587C128.861 42.8939 128.2 42.5212 127.458 42.2658C126.716 42.0105 125.91 41.8784 125.095 41.8784C124.28 41.8784 123.474 42.0105 122.732 42.2658C121.99 42.5212 121.328 42.8939 120.793 43.3587C119.644 44.3366 119.056 45.5871 119.056 47.1123C119.056 48.6375 119.644 49.8982 120.79 50.8658C121.331 51.3242 121.994 51.691 122.735 51.9422C123.477 52.1933 124.28 52.3231 125.092 52.3231C125.905 52.3231 126.708 52.1933 127.449 51.9422C128.19 51.691 128.853 51.3242 129.394 50.8658C130.543 49.888 131.131 48.6375 131.131 47.1123C131.131 45.5871 130.546 44.3366 129.397 43.3587ZM146.34 42.0836H142.546V46.7986H146.34C147.73 46.7986 148.879 45.7285 148.879 44.4309C148.879 43.1332 147.73 42.0836 146.34 42.0836ZM179.673 42.0836H175.879V46.7986H179.673C181.063 46.7986 182.212 45.7285 182.212 44.4309C182.212 43.1332 181.055 42.0836 179.665 42.0836H179.673ZM129.397 43.3587C128.861 42.8939 128.2 42.5212 127.458 42.2658C126.716 42.0105 125.91 41.8784 125.095 41.8784C124.28 41.8784 123.474 42.0105 122.732 42.2658C121.99 42.5212 121.328 42.8939 120.793 43.3587C119.644 44.3366 119.056 45.5871 119.056 47.1123C119.056 48.6375 119.644 49.8982 120.79 50.8658C121.331 51.3242 121.994 51.691 122.735 51.9422C123.477 52.1933 124.28 52.3231 125.092 52.3231C125.905 52.3231 126.708 52.1933 127.449 51.9422C128.19 51.691 128.853 51.3242 129.394 50.8658C130.543 49.888 131.131 48.6375 131.131 47.1123C131.131 45.5871 130.546 44.3366 129.397 43.3587ZM146.34 42.0836H142.546V46.7986H146.34C147.73 46.7986 148.879 45.7285 148.879 44.4309C148.879 43.1332 147.73 42.0836 146.34 42.0836ZM179.673 42.0836H175.879V46.7986H179.673C181.063 46.7986 182.212 45.7285 182.212 44.4309C182.212 43.1332 181.055 42.0836 179.665 42.0836H179.673ZM129.397 43.3587C128.861 42.8939 128.2 42.5212 127.458 42.2658C126.716 42.0105 125.91 41.8784 125.095 41.8784C124.28 41.8784 123.474 42.0105 122.732 42.2658C121.99 42.5212 121.328 42.8939 120.793 43.3587C119.644 44.3366 119.056 45.5871 119.056 47.1123C119.056 48.6375 119.644 49.8982 120.79 50.8658C121.331 51.3242 121.994 51.691 122.735 51.9422C123.477 52.1933 124.28 52.3231 125.092 52.3231C125.905 52.3231 126.708 52.1933 127.449 51.9422C128.19 51.691 128.853 51.3242 129.394 50.8658C130.543 49.888 131.131 48.6375 131.131 47.1123C131.131 45.5871 130.546 44.3366 129.397 43.3587ZM146.34 42.0836H142.546V46.7986H146.34C147.73 46.7986 148.879 45.7285 148.879 44.4309C148.879 43.1332 147.73 42.0836 146.34 42.0836ZM179.673 42.0836H175.879V46.7986H179.673C181.063 46.7986 182.212 45.7285 182.212 44.4309C182.212 43.1332 181.055 42.0836 179.665 42.0836H179.673ZM197.212 42.7663L194.659 49.2832H199.789L197.212 42.7663ZM220.713 43.5432C220.243 43.0946 219.64 42.7354 218.954 42.4944C218.267 42.2535 217.516 42.1373 216.759 42.1554H213.017V52.0774H216.759C217.512 52.0952 218.26 51.9819 218.946 51.7462C219.631 51.5106 220.236 51.1588 220.713 50.7182C221.729 49.7855 222.239 48.6006 222.239 47.1225C222.239 45.6445 221.729 44.4514 220.713 43.5432ZM129.386 43.3628C128.85 42.898 128.189 42.5253 127.447 42.2699C126.705 42.0146 125.899 41.8825 125.084 41.8825C124.269 41.8825 123.463 42.0146 122.721 42.2699C121.979 42.5253 121.318 42.898 120.782 43.3628C119.633 44.3407 119.045 45.5912 119.045 47.1164C119.045 48.6416 119.644 49.8982 120.79 50.8658C121.331 51.3242 121.994 51.691 122.735 51.9422C123.477 52.1933 124.28 52.3231 125.092 52.3231C125.905 52.3231 126.708 52.1933 127.449 51.9422C128.19 51.691 128.853 51.3242 129.394 50.8658C130.543 49.888 131.131 48.6375 131.131 47.1123C131.131 45.5871 130.546 44.3366 129.397 43.3587L129.386 43.3628ZM146.329 42.0877H142.535V46.8027H146.329C147.719 46.8027 148.868 45.7326 148.868 44.435C148.868 43.1373 147.73 42.0836 146.34 42.0836L146.329 42.0877ZM179.662 42.0877H175.868V46.8027H179.662C181.052 46.8027 182.201 45.7326 182.201 44.435C182.201 43.1373 181.055 42.0836 179.665 42.0836L179.662 42.0877ZM197.212 42.7663L194.659 49.2832H199.789L197.212 42.7663ZM220.713 43.5432C220.243 43.0946 219.64 42.7354 218.954 42.4944C218.267 42.2535 217.516 42.1373 216.759 42.1554H213.017V52.0774H216.759C217.512 52.0952 218.26 51.9819 218.946 51.7462C219.631 51.5106 220.236 51.1588 220.713 50.7182C221.729 49.7855 222.239 48.6006 222.239 47.1225C222.239 45.6445 221.729 44.4514 220.713 43.5432ZM88.7687 38.6027L82.3406 44.9782L83.7688 46.4624L96.1291 59.2975L98.0261 61.2614H247.539V38.5986L88.7687 38.6027ZM229.827 39.1521H241.266V42.1554H233.526V45.5461H240.607V48.5042H233.526V52.0774H241.409V55.0806H229.838L229.827 39.1521ZM209.328 39.1521H216.759C219.326 39.1521 221.464 39.927 223.174 41.4502C224.884 42.9733 225.765 44.8634 225.765 47.1164C225.765 49.3693 224.911 51.2574 223.174 52.7826C221.437 54.3078 219.326 55.0806 216.759 55.0806H209.328V39.1521ZM194.925 39.1521H199.497L206.071 55.0806H202.06L200.938 52.2106H193.483L192.361 55.0806H188.377L194.925 39.1521ZM172.183 39.1521H179.665C180.506 39.1475 181.337 39.2839 182.1 39.5516C182.863 39.8192 183.538 40.2114 184.077 40.6999C185.281 41.7263 185.93 43.0586 185.892 44.4309C185.892 46.4112 184.451 48.2316 182.285 49.0741L186.429 55.0806H182.445L178.678 49.5456H175.871V55.0806H172.183V39.1521ZM154.92 39.1521H168.684V42.1554H163.632V55.0806H159.944V42.1513H154.92V39.1521ZM138.858 39.1521H146.34C147.181 39.1475 148.013 39.2839 148.775 39.5516C149.538 39.8192 150.213 40.2114 150.752 40.6999C151.956 41.7263 152.605 43.0586 152.568 44.4309C152.568 46.4112 151.126 48.2316 148.961 49.0741L153.101 55.0806H149.12L145.351 49.5456H142.546V55.0806H138.858V39.1521ZM118.199 41.2452C120.096 39.6298 122.397 38.8344 125.096 38.8344C127.795 38.8344 130.093 39.6298 131.99 41.2452C133.887 42.8606 134.822 44.7958 134.822 47.1164C134.822 49.437 133.887 51.3947 131.99 53.0101C130.093 54.6255 127.795 55.3984 125.096 55.3984C122.397 55.3984 120.099 54.603 118.199 53.0101C116.3 51.4173 115.394 49.437 115.394 47.1164C115.394 44.7958 116.329 42.8339 118.199 41.2411V41.2452ZM99.1724 39.1521H106.156C107.016 39.1452 107.868 39.28 108.653 39.5473C109.437 39.8146 110.135 40.2079 110.698 40.6999C111.889 41.7608 112.543 43.1075 112.543 44.4996C112.543 45.8916 111.889 47.2383 110.698 48.2992C110.135 48.7909 109.437 49.1837 108.652 49.4503C107.868 49.7169 107.016 49.8509 106.156 49.8429H102.861V55.0765H99.1724V39.1521ZM220.713 50.7182C221.729 49.7855 222.239 48.6006 222.239 47.1225C222.239 45.6445 221.729 44.4575 220.713 43.5494C220.243 43.1008 219.64 42.7416 218.954 42.5006C218.267 42.2596 217.516 42.1435 216.759 42.1615H213.017V52.0835H216.759C217.513 52.1006 218.261 51.9863 218.947 51.7496C219.632 51.5129 220.237 51.16 220.713 50.7182ZM197.212 42.7663L194.659 49.2832H199.789L197.212 42.7663ZM182.193 44.4268C182.193 43.1312 181.044 42.0836 179.654 42.0836H175.86V46.7986H179.654C181.055 46.7945 182.204 45.7244 182.204 44.4268H182.193ZM148.86 44.4268C148.86 43.1312 147.711 42.0836 146.321 42.0836H142.527V46.7986H146.321C147.73 46.7945 148.879 45.7244 148.879 44.4268H148.86ZM125.077 52.3234C125.892 52.3362 126.7 52.2121 127.444 51.96C128.188 51.708 128.848 51.3343 129.378 50.8658C130.527 49.888 131.115 48.6375 131.115 47.1123C131.115 45.5871 130.527 44.3366 129.378 43.3587C128.842 42.8939 128.181 42.5212 127.439 42.2658C126.697 42.0105 125.891 41.8784 125.076 41.8784C124.261 41.8784 123.455 42.0105 122.713 42.2658C121.971 42.5212 121.31 42.8939 120.774 43.3587C119.625 44.3366 119.037 45.5871 119.037 47.1123C119.037 48.6375 119.644 49.8982 120.79 50.8658C121.321 51.3346 121.982 51.7085 122.727 51.9605C123.471 52.2125 124.281 52.3365 125.096 52.3234H125.077ZM197.212 42.7663L194.659 49.2832H199.789L197.212 42.7663ZM179.654 42.0836H175.86V46.7986H179.654C181.044 46.7986 182.193 45.7285 182.193 44.4309C182.193 43.1332 181.055 42.0836 179.665 42.0836H179.654ZM146.321 42.0836H142.527V46.7986H146.321C147.711 46.7986 148.86 45.7285 148.86 44.4309C148.86 43.1332 147.73 42.0836 146.34 42.0836H146.321ZM129.378 43.3587C128.842 42.8939 128.181 42.5212 127.439 42.2658C126.697 42.0105 125.891 41.8784 125.076 41.8784C124.261 41.8784 123.455 42.0105 122.713 42.2658C121.971 42.5212 121.31 42.8939 120.774 43.3587C119.625 44.3366 119.037 45.5871 119.037 47.1123C119.037 48.6375 119.644 49.8982 120.79 50.8658C121.331 51.3242 121.994 51.691 122.735 51.9422C123.477 52.1933 124.28 52.3231 125.092 52.3231C125.905 52.3231 126.708 52.1933 127.449 51.9422C128.19 51.691 128.853 51.3242 129.394 50.8658C130.543 49.888 131.131 48.6375 131.131 47.1123C131.131 45.5871 130.546 44.3366 129.397 43.3587H129.378ZM197.212 42.7663L194.659 49.2832H199.789L197.212 42.7663ZM179.654 42.0836H175.86V46.7986H179.654C181.044 46.7986 182.193 45.7285 182.193 44.4309C182.193 43.1332 181.055 42.0836 179.665 42.0836H179.654ZM146.321 42.0836H142.527V46.7986H146.321C147.711 46.7986 148.86 45.7285 148.86 44.4309C148.86 43.1332 147.73 42.0836 146.34 42.0836H146.321ZM129.378 43.3587C128.842 42.8939 128.181 42.5212 127.439 42.2658C126.697 42.0105 125.891 41.8784 125.076 41.8784C124.261 41.8784 123.455 42.0105 122.713 42.2658C121.971 42.5212 121.31 42.8939 120.774 43.3587C119.625 44.3366 119.037 45.5871 119.037 47.1123C119.037 48.6375 119.644 49.8982 120.79 50.8658C121.331 51.3242 121.994 51.691 122.735 51.9422C123.477 52.1933 124.28 52.3231 125.092 52.3231C125.905 52.3231 126.708 52.1933 127.449 51.9422C128.19 51.691 128.853 51.3242 129.394 50.8658C130.543 49.888 131.131 48.6375 131.131 47.1123C131.131 45.5871 130.546 44.3366 129.397 43.3587H129.378ZM146.321 42.0836H142.527V46.7986H146.321C147.711 46.7986 148.86 45.7285 148.86 44.4309C148.86 43.1332 147.73 42.0836 146.34 42.0836H146.321ZM129.378 43.3587C128.842 42.8939 128.181 42.5212 127.439 42.2658C126.697 42.0105 125.891 41.8784 125.076 41.8784C124.261 41.8784 123.455 42.0105 122.713 42.2658C121.971 42.5212 121.31 42.8939 120.774 43.3587C119.625 44.3366 119.037 45.5871 119.037 47.1123C119.037 48.6375 119.644 49.8982 120.79 50.8658C121.331 51.3242 121.994 51.691 122.735 51.9422C123.477 52.1933 124.28 52.3231 125.092 52.3231C125.905 52.3231 126.708 52.1933 127.449 51.9422C128.19 51.691 128.853 51.3242 129.394 50.8658C130.543 49.888 131.131 48.6375 131.131 47.1123C131.131 45.5871 130.546 44.3366 129.397 43.3587H129.378ZM146.321 42.0836H142.527V46.7986H146.321C147.711 46.7986 148.86 45.7285 148.86 44.4309C148.86 43.1332 147.73 42.0836 146.34 42.0836H146.321ZM129.378 43.3587C128.842 42.8939 128.181 42.5212 127.439 42.2658C126.697 42.0105 125.891 41.8784 125.076 41.8784C124.261 41.8784 123.455 42.0105 122.713 42.2658C121.971 42.5212 121.31 42.8939 120.774 43.3587C119.625 44.3366 119.037 45.5871 119.037 47.1123C119.037 48.6375 119.644 49.8982 120.79 50.8658C121.331 51.3242 121.994 51.691 122.735 51.9422C123.477 52.1933 124.28 52.3231 125.092 52.3231C125.905 52.3231 126.708 52.1933 127.449 51.9422C128.19 51.691 128.853 51.3242 129.394 50.8658C130.543 49.888 131.131 48.6375 131.131 47.1123C131.131 45.5871 130.546 44.3366 129.397 43.3587H129.378ZM129.378 43.3587C128.842 42.8939 128.181 42.5212 127.439 42.2658C126.697 42.0105 125.891 41.8784 125.076 41.8784C124.261 41.8784 123.455 42.0105 122.713 42.2658C121.971 42.5212 121.31 42.8939 120.774 43.3587C119.625 44.3366 119.037 45.5871 119.037 47.1123C119.037 48.6375 119.644 49.8982 120.79 50.8658C121.331 51.3242 121.994 51.691 122.735 51.9422C123.477 52.1933 124.28 52.3231 125.092 52.3231C125.905 52.3231 126.708 52.1933 127.449 51.9422C128.19 51.691 128.853 51.3242 129.394 50.8658C130.543 49.888 131.131 48.6375 131.131 47.1123C131.131 45.5871 130.546 44.3366 129.397 43.3587H129.378ZM129.378 43.3587C128.842 42.8939 128.181 42.5212 127.439 42.2658C126.697 42.0105 125.891 41.8784 125.076 41.8784C124.261 41.8784 123.455 42.0105 122.713 42.2658C121.971 42.5212 121.31 42.8939 120.774 43.3587C119.625 44.3366 119.037 45.5871 119.037 47.1123C119.037 48.6375 119.644 49.8982 120.79 50.8658C121.331 51.3242 121.994 51.691 122.735 51.9422C123.477 52.1933 124.28 52.3231 125.092 52.3231C125.905 52.3231 126.708 52.1933 127.449 51.9422C128.19 51.691 128.853 51.3242 129.394 50.8658C130.543 49.888 131.131 48.6375 131.131 47.1123C131.131 45.5871 130.546 44.3366 129.397 43.3587H129.378Z" fill="#008E1F"/>
<path d="M129.397 43.3589C128.861 42.894 128.2 42.5214 127.458 42.266C126.716 42.0107 125.91 41.8785 125.095 41.8785C124.28 41.8785 123.474 42.0107 122.732 42.266C121.99 42.5214 121.328 42.894 120.793 43.3589C119.644 44.3368 119.056 45.5873 119.056 47.1125C119.056 48.6377 119.644 49.8984 120.79 50.866C121.331 51.3244 121.994 51.6912 122.735 51.9424C123.477 52.1935 124.28 52.3233 125.092 52.3233C125.905 52.3233 126.708 52.1935 127.449 51.9424C128.19 51.6912 128.853 51.3244 129.394 50.866C130.543 49.8882 131.131 48.6377 131.131 47.1125C131.131 45.5873 130.546 44.3368 129.397 43.3589ZM146.34 42.0838H142.546V46.7988H146.34C147.73 46.7988 148.879 45.7287 148.879 44.4311C148.879 43.1334 147.73 42.0838 146.34 42.0838ZM146.34 42.0838H142.546V46.7988H146.34C147.73 46.7988 148.879 45.7287 148.879 44.4311C148.879 43.1334 147.73 42.0838 146.34 42.0838ZM129.397 43.3589C128.861 42.894 128.2 42.5214 127.458 42.266C126.716 42.0107 125.91 41.8785 125.095 41.8785C124.28 41.8785 123.474 42.0107 122.732 42.266C121.99 42.5214 121.328 42.894 120.793 43.3589C119.644 44.3368 119.056 45.5873 119.056 47.1125C119.056 48.6377 119.644 49.8984 120.79 50.866C121.331 51.3244 121.994 51.6912 122.735 51.9424C123.477 52.1935 124.28 52.3233 125.092 52.3233C125.905 52.3233 126.708 52.1935 127.449 51.9424C128.19 51.6912 128.853 51.3244 129.394 50.866C130.543 49.8882 131.131 48.6377 131.131 47.1125C131.131 45.5873 130.546 44.3368 129.397 43.3589ZM129.397 43.3589C128.861 42.894 128.2 42.5214 127.458 42.266C126.716 42.0107 125.91 41.8785 125.095 41.8785C124.28 41.8785 123.474 42.0107 122.732 42.266C121.99 42.5214 121.328 42.894 120.793 43.3589C119.644 44.3368 119.056 45.5873 119.056 47.1125C119.056 48.6377 119.644 49.8984 120.79 50.866C121.331 51.3244 121.994 51.6912 122.735 51.9424C123.477 52.1935 124.28 52.3233 125.092 52.3233C125.905 52.3233 126.708 52.1935 127.449 51.9424C128.19 51.6912 128.853 51.3244 129.394 50.866C130.543 49.8882 131.131 48.6377 131.131 47.1125C131.131 45.5873 130.546 44.3368 129.397 43.3589ZM146.34 42.0838H142.546V46.7988H146.34C147.73 46.7988 148.879 45.7287 148.879 44.4311C148.879 43.1334 147.73 42.0838 146.34 42.0838ZM179.673 42.0838H175.879V46.7988H179.673C181.063 46.7988 182.212 45.7287 182.212 44.4311C182.212 43.1334 181.055 42.0838 179.665 42.0838H179.673ZM179.673 42.0838H175.879V46.7988H179.673C181.063 46.7988 182.212 45.7287 182.212 44.4311C182.212 43.1334 181.055 42.0838 179.665 42.0838H179.673ZM146.34 42.0838H142.546V46.7988H146.34C147.73 46.7988 148.879 45.7287 148.879 44.4311C148.879 43.1334 147.73 42.0838 146.34 42.0838ZM129.397 43.3589C128.861 42.894 128.2 42.5214 127.458 42.266C126.716 42.0107 125.91 41.8785 125.095 41.8785C124.28 41.8785 123.474 42.0107 122.732 42.266C121.99 42.5214 121.328 42.894 120.793 43.3589C119.644 44.3368 119.056 45.5873 119.056 47.1125C119.056 48.6377 119.644 49.8984 120.79 50.866C121.331 51.3244 121.994 51.6912 122.735 51.9424C123.477 52.1935 124.28 52.3233 125.092 52.3233C125.905 52.3233 126.708 52.1935 127.449 51.9424C128.19 51.6912 128.853 51.3244 129.394 50.866C130.543 49.8882 131.131 48.6377 131.131 47.1125C131.131 45.5873 130.546 44.3368 129.397 43.3589ZM129.397 43.3589C128.861 42.894 128.2 42.5214 127.458 42.266C126.716 42.0107 125.91 41.8785 125.095 41.8785C124.28 41.8785 123.474 42.0107 122.732 42.266C121.99 42.5214 121.328 42.894 120.793 43.3589C119.644 44.3368 119.056 45.5873 119.056 47.1125C119.056 48.6377 119.644 49.8984 120.79 50.866C121.331 51.3244 121.994 51.6912 122.735 51.9424C123.477 52.1935 124.28 52.3233 125.092 52.3233C125.905 52.3233 126.708 52.1935 127.449 51.9424C128.19 51.6912 128.853 51.3244 129.394 50.866C130.543 49.8882 131.131 48.6377 131.131 47.1125C131.131 45.5873 130.546 44.3368 129.397 43.3589ZM146.34 42.0838H142.546V46.7988H146.34C147.73 46.7988 148.879 45.7287 148.879 44.4311C148.879 43.1334 147.73 42.0838 146.34 42.0838ZM179.673 42.0838H175.879V46.7988H179.673C181.063 46.7988 182.212 45.7287 182.212 44.4311C182.212 43.1334 181.055 42.0838 179.665 42.0838H179.673ZM197.212 42.7665L194.659 49.2834H199.789L197.212 42.7665ZM220.713 43.5434C220.243 43.0948 219.64 42.7356 218.954 42.4946C218.267 42.2536 217.516 42.1375 216.759 42.1556H213.017V52.0776H216.759C217.512 52.0954 218.26 51.9821 218.945 51.7464C219.631 51.5107 220.236 51.159 220.713 50.7184C221.729 49.7857 222.239 48.6008 222.239 47.1227C222.239 45.6447 221.729 44.4516 220.713 43.5434ZM220.713 43.5434C220.243 43.0948 219.64 42.7356 218.954 42.4946C218.267 42.2536 217.516 42.1375 216.759 42.1556H213.017V52.0776H216.759C217.512 52.0954 218.26 51.9821 218.945 51.7464C219.631 51.5107 220.236 51.159 220.713 50.7184C221.729 49.7857 222.239 48.6008 222.239 47.1227C222.239 45.6447 221.729 44.4516 220.713 43.5434ZM197.212 42.7665L194.659 49.2834H199.789L197.212 42.7665ZM179.654 42.0838H175.86V46.7988H179.654C181.044 46.7988 182.193 45.7287 182.193 44.4311C182.193 43.1334 181.055 42.0838 179.665 42.0838H179.654ZM146.321 42.0838H142.527V46.7988H146.321C147.711 46.7988 148.86 45.7287 148.86 44.4311C148.86 43.1334 147.73 42.0838 146.34 42.0838H146.321ZM129.378 43.3589C128.842 42.894 128.181 42.5214 127.439 42.266C126.697 42.0107 125.891 41.8785 125.076 41.8785C124.261 41.8785 123.455 42.0107 122.713 42.266C121.971 42.5214 121.31 42.894 120.774 43.3589C119.625 44.3368 119.037 45.5873 119.037 47.1125C119.037 48.6377 119.644 49.8984 120.79 50.866C121.331 51.3244 121.994 51.6912 122.735 51.9424C123.477 52.1935 124.28 52.3233 125.092 52.3233C125.905 52.3233 126.708 52.1935 127.449 51.9424C128.19 51.6912 128.853 51.3244 129.394 50.866C130.543 49.8882 131.131 48.6377 131.131 47.1125C131.131 45.5873 130.546 44.3368 129.397 43.3589H129.378ZM90.747 36.637L88.7687 38.5988L82.3406 44.9784L83.7688 46.4626L96.1291 59.2977H245.233V36.637H90.747ZM110.69 48.2953C110.128 48.7869 109.432 49.1801 108.649 49.4474C107.866 49.7146 107.015 49.8497 106.156 49.8431H102.861V55.0767H99.1724V39.1482H106.156C107.016 39.1413 107.868 39.2761 108.653 39.5434C109.437 39.8107 110.135 40.204 110.698 40.696C111.889 41.7569 112.543 43.1036 112.543 44.4956C112.543 45.8877 111.889 47.2344 110.698 48.2953H110.69ZM131.99 53.0103C130.093 54.6025 127.795 55.3986 125.096 55.3986C122.397 55.3986 120.098 54.6025 118.199 53.0103C116.329 51.3949 115.394 49.4372 115.394 47.1166C115.394 44.796 116.329 42.8382 118.199 41.2454C120.069 39.6525 122.397 38.8284 125.096 38.8284C127.795 38.8284 130.093 39.6238 131.99 41.2392C133.887 42.8546 134.822 44.7898 134.822 47.1104C134.822 49.431 133.887 51.3908 131.99 53.0062V53.0103ZM149.12 55.0808L145.351 49.5458H142.546V55.0808H138.858V39.1523H146.34C147.181 39.1477 148.013 39.2841 148.775 39.5517C149.538 39.8194 150.213 40.2115 150.752 40.7001C151.956 41.7265 152.605 43.0588 152.568 44.4311C152.568 46.4114 151.126 48.2318 148.96 49.0743L153.101 55.0808H149.12ZM168.684 42.1556H163.632V55.0808H159.944V42.1515H154.92V39.1482H168.684V42.1556ZM182.445 55.0808L178.678 49.5458H175.871V55.0808H172.182V39.1523H179.665C180.506 39.1477 181.337 39.2841 182.1 39.5517C182.863 39.8194 183.538 40.2115 184.077 40.7001C185.281 41.7265 185.93 43.0588 185.892 44.4311C185.892 46.4114 184.451 48.2318 182.285 49.0743L186.429 55.0808H182.445ZM202.06 55.0808L200.938 52.2108H193.483L192.361 55.0808H188.377L194.925 39.1523H199.497L206.071 55.0808H202.06ZM223.174 52.7828C221.464 54.3059 219.326 55.0808 216.759 55.0808H209.328V39.1523H216.759C219.326 39.1523 221.464 39.9272 223.174 41.4504C224.884 42.9735 225.765 44.8636 225.765 47.1166C225.765 49.3695 224.911 51.2535 223.174 52.7787V52.7828ZM241.399 55.0808H229.827V39.1523H241.266V42.1556H233.526V45.5463H240.607V48.5044H233.526V52.0776H241.409L241.399 55.0808ZM216.759 42.1556H213.017V52.0776H216.759C217.512 52.0954 218.26 51.9821 218.945 51.7464C219.631 51.5107 220.236 51.159 220.713 50.7184C221.729 49.7857 222.239 48.6008 222.239 47.1227C222.239 45.6447 221.729 44.4577 220.713 43.5496C220.244 43.0991 219.642 42.7379 218.956 42.4951C218.269 42.2523 217.517 42.1346 216.759 42.1515V42.1556ZM194.659 49.2834H199.789L197.212 42.7665L194.659 49.2834ZM179.665 42.092H175.871V46.807H179.665C181.055 46.807 182.204 45.7369 182.204 44.4393C182.204 43.1416 181.055 42.0838 179.665 42.0838V42.092ZM146.332 42.092H142.538V46.807H146.332C147.722 46.807 148.871 45.7369 148.871 44.4393C148.871 43.1416 147.73 42.0838 146.34 42.0838L146.332 42.092ZM125.088 41.887C124.273 41.878 123.465 42.0053 122.722 42.2597C121.979 42.5141 121.319 42.8895 120.79 43.3589C119.641 44.3368 119.053 45.5873 119.053 47.1125C119.053 48.6377 119.644 49.8984 120.79 50.866C121.331 51.3244 121.994 51.6912 122.735 51.9424C123.477 52.1935 124.28 52.3233 125.092 52.3233C125.905 52.3233 126.708 52.1935 127.449 51.9424C128.19 51.6912 128.853 51.3244 129.394 50.866C130.543 49.8882 131.131 48.6377 131.131 47.1125C131.131 45.5873 130.543 44.3368 129.394 43.3589C128.866 42.8877 128.207 42.5107 127.464 42.2548C126.721 41.9989 125.913 41.8705 125.096 41.8788L125.088 41.887ZM129.389 43.3671C128.853 42.9022 128.192 42.5296 127.45 42.2742C126.708 42.0189 125.902 41.8867 125.087 41.8867C124.271 41.8867 123.466 42.0189 122.724 42.2742C121.982 42.5296 121.32 42.9022 120.785 43.3671C119.636 44.345 119.048 45.5955 119.048 47.1207C119.048 48.6459 119.644 49.8984 120.79 50.866C121.331 51.3244 121.994 51.6912 122.735 51.9424C123.477 52.1935 124.28 52.3233 125.092 52.3233C125.905 52.3233 126.708 52.1935 127.449 51.9424C128.19 51.6912 128.853 51.3244 129.394 50.866C130.543 49.8882 131.131 48.6377 131.131 47.1125C131.131 45.5873 130.546 44.3368 129.397 43.3589L129.389 43.3671ZM146.332 42.092H142.538V46.807H146.332C147.722 46.807 148.871 45.7369 148.871 44.4393C148.871 43.1416 147.73 42.0838 146.34 42.0838L146.332 42.092ZM179.665 42.092H175.871V46.807H179.665C181.055 46.807 182.204 45.7369 182.204 44.4393C182.204 43.1416 181.055 42.0838 179.665 42.0838V42.092ZM197.212 42.7665L194.659 49.2834H199.789L197.212 42.7665ZM197.212 42.7665L194.659 49.2834H199.789L197.212 42.7665ZM179.654 42.0838H175.86V46.7988H179.654C181.044 46.7988 182.193 45.7287 182.193 44.4311C182.193 43.1334 181.055 42.0838 179.665 42.0838H179.654ZM146.321 42.0838H142.527V46.7988H146.321C147.711 46.7988 148.86 45.7287 148.86 44.4311C148.86 43.1334 147.73 42.0838 146.34 42.0838H146.321ZM129.378 43.3589C128.842 42.894 128.181 42.5214 127.439 42.266C126.697 42.0107 125.891 41.8785 125.076 41.8785C124.261 41.8785 123.455 42.0107 122.713 42.266C121.971 42.5214 121.31 42.894 120.774 43.3589C119.625 44.3368 119.037 45.5873 119.037 47.1125C119.037 48.6377 119.644 49.8984 120.79 50.866C121.331 51.3244 121.994 51.6912 122.735 51.9424C123.477 52.1935 124.28 52.3233 125.092 52.3233C125.905 52.3233 126.708 52.1935 127.449 51.9424C128.19 51.6912 128.853 51.3244 129.394 50.866C130.543 49.8882 131.131 48.6377 131.131 47.1125C131.131 45.5873 130.546 44.3368 129.397 43.3589H129.378ZM129.378 43.3589C128.842 42.894 128.181 42.5214 127.439 42.266C126.697 42.0107 125.891 41.8785 125.076 41.8785C124.261 41.8785 123.455 42.0107 122.713 42.266C121.971 42.5214 121.31 42.894 120.774 43.3589C119.625 44.3368 119.037 45.5873 119.037 47.1125C119.037 48.6377 119.644 49.8984 120.79 50.866C121.331 51.3244 121.994 51.6912 122.735 51.9424C123.477 52.1935 124.28 52.3233 125.092 52.3233C125.905 52.3233 126.708 52.1935 127.449 51.9424C128.19 51.6912 128.853 51.3244 129.394 50.866C130.543 49.8882 131.131 48.6377 131.131 47.1125C131.131 45.5873 130.546 44.3368 129.397 43.3589H129.378ZM146.321 42.0838H142.527V46.7988H146.321C147.711 46.7988 148.86 45.7287 148.86 44.4311C148.86 43.1334 147.73 42.0838 146.34 42.0838H146.321ZM146.321 42.0838H142.527V46.7988H146.321C147.711 46.7988 148.86 45.7287 148.86 44.4311C148.86 43.1334 147.73 42.0838 146.34 42.0838H146.321ZM129.378 43.3589C128.842 42.894 128.181 42.5214 127.439 42.266C126.697 42.0107 125.891 41.8785 125.076 41.8785C124.261 41.8785 123.455 42.0107 122.713 42.266C121.971 42.5214 121.31 42.894 120.774 43.3589C119.625 44.3368 119.037 45.5873 119.037 47.1125C119.037 48.6377 119.644 49.8984 120.79 50.866C121.331 51.3244 121.994 51.6912 122.735 51.9424C123.477 52.1935 124.28 52.3233 125.092 52.3233C125.905 52.3233 126.708 52.1935 127.449 51.9424C128.19 51.6912 128.853 51.3244 129.394 50.866C130.543 49.8882 131.131 48.6377 131.131 47.1125C131.131 45.5873 130.546 44.3368 129.397 43.3589H129.378ZM129.378 43.3589C128.842 42.894 128.181 42.5214 127.439 42.266C126.697 42.0107 125.891 41.8785 125.076 41.8785C124.261 41.8785 123.455 42.0107 122.713 42.266C121.971 42.5214 121.31 42.894 120.774 43.3589C119.625 44.3368 119.037 45.5873 119.037 47.1125C119.037 48.6377 119.644 49.8984 120.79 50.866C121.331 51.3244 121.994 51.6912 122.735 51.9424C123.477 52.1935 124.28 52.3233 125.092 52.3233C125.905 52.3233 126.708 52.1935 127.449 51.9424C128.19 51.6912 128.853 51.3244 129.394 50.866C130.543 49.8882 131.131 48.6377 131.131 47.1125C131.131 45.5873 130.546 44.3368 129.397 43.3589H129.378ZM129.378 43.3589C128.842 42.894 128.181 42.5214 127.439 42.266C126.697 42.0107 125.891 41.8785 125.076 41.8785C124.261 41.8785 123.455 42.0107 122.713 42.266C121.971 42.5214 121.31 42.894 120.774 43.3589C119.625 44.3368 119.037 45.5873 119.037 47.1125C119.037 48.6377 119.644 49.8984 120.79 50.866C121.331 51.3244 121.994 51.6912 122.735 51.9424C123.477 52.1935 124.28 52.3233 125.092 52.3233C125.905 52.3233 126.708 52.1935 127.449 51.9424C128.19 51.6912 128.853 51.3244 129.394 50.866C130.543 49.8882 131.131 48.6377 131.131 47.1125C131.131 45.5873 130.546 44.3368 129.397 43.3589H129.378Z" fill="#008E1F"/>
<path d="M109.005 44.4128C109.005 45.7782 107.856 46.8237 106.279 46.8237H103V42H106.295C107.864 42 109.005 43.025 109.005 44.4128Z" fill="#008E1F"/>
<path d="M65.506 19.6035H37.1133C37.1133 19.6035 53.1023 29.8248 64.8447 43.5885C64.8447 43.5885 49.3516 62.9159 37.1133 69.8039H64.132C64.132 69.8039 59.7282 68.4694 60.8041 65.2119C61.88 61.9545 67.9504 55.8803 73.14 52.7705C73.14 52.7705 82.4733 59.4842 97.2238 72.5181C111.974 85.552 117.82 87.0219 121.885 85.1338C124.738 83.8075 123.99 77.6903 117.056 79.7259C114.43 80.4988 111.907 79.8018 80.2755 44.7714L105.641 19.6035H80.2836C80.2836 19.6035 82.7958 21.7765 80.2836 25.8232C77.7714 29.8699 72.4869 34.958 72.4869 34.958C72.4869 34.958 66.1564 31.2065 63.2729 25.034C62.2269 22.7646 65.506 19.6035 65.506 19.6035Z" fill="#008E1F"/>
<path d="M66.7118 25.528C65.9611 24.0212 68.9963 20.813 68.9963 20.813C68.0667 20.9084 67.1954 21.2101 66.4926 21.6801C65.7898 22.1501 65.287 22.7672 65.0478 23.4534C64.4218 25.1139 66.7118 25.528 66.7118 25.528Z" fill="#008E1F"/>
<path d="M78.6875 25.2042C79.7715 24.1464 80.5709 22.9738 80.1807 21.4875C79.7363 19.7922 77.4436 20.2227 77.4436 20.2227C79.0235 21.2989 78.6875 25.2042 78.6875 25.2042Z" fill="#008E1F"/>
<path d="M110.34 20.1733H107.34L82.3433 44.9804L83.7714 46.4646L110.34 20.1733Z" fill="#008E1F"/>
<path d="M36.0022 21.3809V25.528C48.7392 33.523 59.9559 46.3273 59.9559 46.3273L62.1239 44.0293C50.5007 30.8478 36.0022 21.3809 36.0022 21.3809Z" fill="#008E1F"/>
<path d="M124.831 85.8144C124.831 85.8144 121.099 89.8775 113.72 87.1428C104.701 83.8095 80.1889 59.7384 73.6361 55.0767C73.6361 55.0767 63.3544 61.0012 62.769 66.3332L68.4465 61.446H76.7689C76.7689 61.446 107.809 92.0033 117.587 91.5995C125.107 91.2899 124.831 85.8144 124.831 85.8144Z" fill="#008E1F"/>
<path d="M124.121 69.0084H119.419V64.6152H117.362V76.2265H119.419V70.7427H124.121V76.2265H126.177V64.6152H124.121V69.0084Z" fill="#008E1F"/>
<path d="M137.752 67.8849C137.548 67.2135 137.193 66.5735 136.703 65.9928C136.278 65.504 135.706 65.098 135.034 64.8079C134.353 64.5302 133.591 64.3838 132.818 64.3816C132.044 64.3795 131.281 64.5217 130.597 64.7956C129.916 65.0862 129.337 65.4977 128.912 65.9948C128.428 66.5794 128.074 67.2199 127.863 67.8911C127.606 68.7213 127.483 69.5722 127.497 70.4249C127.485 71.2712 127.606 72.1156 127.858 72.9402C128.058 73.615 128.413 74.2581 128.906 74.8406C129.329 75.3421 129.908 75.7575 130.592 76.0501C131.269 76.3173 132.02 76.4579 132.784 76.46C133.547 76.4621 134.3 76.3258 134.98 76.0624C135.68 75.7671 136.273 75.3444 136.703 74.8324C137.201 74.2475 137.559 73.6007 137.76 72.9218C138.009 72.0996 138.129 71.2581 138.118 70.4146C138.131 69.5633 138.008 68.714 137.752 67.8849ZM135.102 73.6926C134.524 74.4121 133.776 74.7627 132.812 74.7627C131.847 74.7627 131.099 74.4121 130.519 73.6926C129.939 72.973 129.616 71.8476 129.616 70.4249C129.608 69.7822 129.687 69.1406 129.852 68.5102C129.973 68.0292 130.195 67.5661 130.511 67.1387C130.753 66.8123 131.096 66.5352 131.511 66.331C131.907 66.163 132.354 66.0747 132.809 66.0747C133.263 66.0747 133.71 66.163 134.107 66.331C134.522 66.5294 134.865 66.8037 135.104 67.1285C135.418 67.5529 135.64 68.0124 135.763 68.4897C135.931 69.124 136.011 69.7698 136.001 70.4167C136.001 71.8496 135.695 72.9484 135.102 73.6926Z" fill="#008E1F"/>
<path d="M146.031 71.8456C146.038 72.261 146.004 72.6762 145.93 73.0879C145.874 73.3949 145.753 73.6931 145.573 73.9714C145.409 74.2235 145.148 74.4321 144.825 74.57C144.477 74.7117 144.087 74.7824 143.692 74.775C143.293 74.7847 142.899 74.7139 142.548 74.57C142.234 74.4256 141.982 74.2166 141.819 73.9673C141.635 73.6893 141.513 73.39 141.459 73.0817C141.387 72.6582 141.355 72.2315 141.361 71.8046V64.6152H139.304V71.8087C139.289 72.4969 139.374 73.1843 139.556 73.8587C139.707 74.396 140.012 74.9018 140.448 75.3408C140.812 75.6988 141.285 75.9844 141.827 76.1731C143.031 76.5423 144.377 76.5423 145.581 76.1731C146.111 75.9778 146.575 75.6923 146.936 75.3388C147.382 74.8974 147.688 74.3849 147.833 73.8402C148.011 73.1655 148.094 72.4783 148.079 71.7902V64.6152H146.022L146.031 71.8456Z" fill="#008E1F"/>
<path d="M155.207 69.8122C154.898 69.722 154.502 69.6195 154.031 69.5108C153.559 69.4022 153.18 69.3059 152.865 69.2239C152.471 69.1287 152.128 68.9396 151.887 68.6847C151.642 68.3763 151.525 68.0191 151.551 67.6597C151.537 67.4517 151.581 67.2439 151.68 67.0494C151.778 66.8549 151.929 66.6781 152.123 66.5302C152.324 66.3854 152.562 66.2732 152.823 66.2003C153.083 66.1273 153.36 66.0952 153.638 66.1058C154.217 66.1072 154.786 66.2231 155.288 66.442C155.787 66.6512 156.233 66.9246 156.608 67.2497L156.689 67.3235H157.199V65.2264L157.074 65.1669C156.561 64.9236 156.005 64.7359 155.424 64.6093C154.808 64.4725 154.169 64.4034 153.527 64.4043C152.972 64.3987 152.422 64.4852 151.917 64.6577C151.411 64.8302 150.962 65.0845 150.6 65.4027C149.83 66.0714 149.42 66.935 149.453 67.8216C149.445 68.2316 149.514 68.6403 149.659 69.0352C149.784 69.3684 149.983 69.6831 150.248 69.9659C150.491 70.2248 150.794 70.4484 151.142 70.626C151.491 70.7979 151.868 70.9357 152.264 71.036C152.714 71.1488 153.077 71.241 153.367 71.3005C153.657 71.3599 153.968 71.446 154.315 71.5444C154.7 71.636 155.03 71.8268 155.247 72.0836C155.463 72.3851 155.566 72.7252 155.546 73.0676C155.561 73.2886 155.519 73.5097 155.421 73.7183C155.323 73.9269 155.172 74.1189 154.976 74.2832C154.602 74.5825 154.031 74.7363 153.275 74.7363C152.677 74.724 152.093 74.6015 151.573 74.3796C150.946 74.1235 150.393 73.775 149.947 73.3546L149.865 73.2787H149.361V75.462L149.486 75.5235C150.017 75.7789 150.581 75.9925 151.169 76.161C151.877 76.3503 152.624 76.4406 153.375 76.4275C154.014 76.4422 154.648 76.3446 155.228 76.1426C155.739 75.9453 156.192 75.672 156.559 75.339C156.926 74.9981 157.202 74.6069 157.372 74.1869C157.555 73.748 157.647 73.2901 157.643 72.8298C157.669 72.1816 157.469 71.5395 157.063 70.9684C156.64 70.4323 155.984 70.0237 155.207 69.8122Z" fill="#008E1F"/>
<path d="M158.86 76.2265H166.527V74.4922H160.917V70.7427H166.145V69.0084H160.917V66.3495H166.527V64.6152H158.86V76.2265Z" fill="#008E1F"/>
<path d="M173.147 69.812C172.838 69.7218 172.442 69.6193 171.973 69.5107C171.505 69.402 171.12 69.3057 170.805 69.2237C170.411 69.1285 170.068 68.9394 169.827 68.6845C169.583 68.3759 169.466 68.0188 169.494 67.6595C169.48 67.4517 169.523 67.244 169.621 67.0495C169.719 66.855 169.87 66.6781 170.063 66.53C170.264 66.3856 170.503 66.2735 170.763 66.2006C171.023 66.1277 171.3 66.0954 171.578 66.1056C172.157 66.107 172.726 66.2229 173.228 66.4418C173.727 66.6507 174.174 66.924 174.548 67.2495L174.629 67.3233H175.141V65.2262L175.014 65.1667C174.501 64.9234 173.945 64.7358 173.364 64.6092C172.748 64.4723 172.109 64.4032 171.467 64.4042C170.907 64.3939 170.352 64.4774 169.84 64.6486C169.329 64.8198 168.874 65.0744 168.507 65.3943C167.737 66.0631 167.328 66.9267 167.361 67.8133C167.352 68.2232 167.422 68.6319 167.567 69.0269C167.692 69.3601 167.891 69.6747 168.155 69.9576C168.399 70.217 168.703 70.4407 169.052 70.6177C169.4 70.7899 169.777 70.9277 170.171 71.0277C170.624 71.1404 170.984 71.2327 171.274 71.2921C171.564 71.3516 171.876 71.4377 172.223 71.5361C172.607 71.6276 172.937 71.8184 173.155 72.0752C173.37 72.3767 173.473 72.7168 173.453 73.0592C173.469 73.2802 173.426 73.5013 173.329 73.7099C173.231 73.9185 173.08 74.1105 172.884 74.2749C172.51 74.5742 171.938 74.7279 171.182 74.7279C170.585 74.7156 170.001 74.5932 169.48 74.3712C168.853 74.1153 168.3 73.7667 167.854 73.3462L167.773 73.2704H167.266V75.4536L167.391 75.5151C167.922 75.7705 168.485 75.9842 169.074 76.1527C169.782 76.3419 170.529 76.4322 171.28 76.4192C171.918 76.4338 172.553 76.3362 173.133 76.1342C173.644 75.9369 174.097 75.6636 174.464 75.3306C174.83 74.9897 175.106 74.5985 175.277 74.1785C175.465 73.7402 175.561 73.2822 175.561 72.8214C175.587 72.1735 175.388 71.5317 174.984 70.96C174.563 70.4298 173.915 70.0246 173.147 69.812Z" fill="#008E1F"/>
<path d="M189.052 64.6152H186.995V76.2265H194.141V74.4922H189.052V64.6152Z" fill="#008E1F"/>
<path d="M194.553 66.1691H196.006V74.6726H194.553V76.2265H199.518V74.6726H198.065V66.1691H199.518V64.6152H194.553V66.1691Z" fill="#008E1F"/>
<path d="M206.228 70.4188L203.578 64.6152H201.046V76.2265H203.006V67.6123L205.485 73.1412H206.792L209.298 67.6021V76.2265H211.355V64.6152H208.783L206.228 70.4188Z" fill="#008E1F"/>
<path d="M212.884 66.1691H214.339V74.6726H212.884V76.2265H217.849V74.6726H216.396V66.1691H217.849V64.6152H212.884V66.1691Z" fill="#008E1F"/>
<path d="M218.214 66.3495H222.041V76.2265H224.098V66.3495H227.924V64.6152H218.214V66.3495Z" fill="#008E1F"/>
<path d="M228.735 76.2265H236.401V74.4922H230.792V70.7427H236.019V69.0084H230.792V66.3495H236.401V64.6152H228.735V76.2265Z" fill="#008E1F"/>
<path d="M246.634 67.5284C246.267 66.7655 245.654 66.0841 244.85 65.5461C244.364 65.241 243.806 65.0074 243.205 64.8573C242.358 64.6715 241.477 64.5878 240.596 64.6093H237.729V76.2204H240.625C241.415 76.2334 242.204 76.17 242.972 76.0318C243.657 75.8833 244.292 75.6253 244.834 75.2754C245.635 74.7274 246.244 74.0379 246.606 73.2684C247.053 72.3598 247.274 71.3965 247.257 70.4271C247.284 69.4403 247.073 68.4579 246.634 67.5284ZM244.756 72.5222C244.542 73.0275 244.158 73.4818 243.642 73.8404C243.279 74.0937 242.843 74.2791 242.368 74.3816C241.814 74.4872 241.243 74.5375 240.672 74.5312H239.788V66.2984H240.672C241.22 66.289 241.768 66.3394 242.298 66.4481C242.735 66.5507 243.143 66.7149 243.501 66.9319C244.061 67.2819 244.479 67.7445 244.707 68.2664C245.008 68.9557 245.15 69.6789 245.127 70.4046C245.155 71.123 245.029 71.8402 244.756 72.5284V72.5222Z" fill="#008E1F"/>
<path d="M220.808 31.3294C220.648 31.0049 220.461 30.6885 220.247 30.3823C220.105 30.2013 219.929 30.0369 219.724 29.8944C219.921 29.8617 220.108 29.7982 220.271 29.7078C220.435 29.6174 220.571 29.5022 220.672 29.3696C220.913 29.0323 221.029 28.6518 221.006 28.2688C221.014 27.9541 220.941 27.6413 220.789 27.3483C220.682 27.1273 220.487 26.9368 220.231 26.803C219.877 26.6781 219.487 26.6238 219.098 26.6452H217.03V32.4733H218.008V30.0338H218.212C218.381 30.0258 218.55 30.0483 218.705 30.0994C218.827 30.1586 218.927 30.2405 218.995 30.3372C219.189 30.6171 219.363 30.9045 219.518 31.1982L220.228 32.4672H221.399L220.808 31.3294ZM218.737 29.1031H218.008V27.623H218.778C219.045 27.6112 219.313 27.6263 219.575 27.6681C219.711 27.7145 219.82 27.7969 219.881 27.8998C219.964 28.04 220.003 28.193 219.995 28.3467C220.004 28.5063 219.965 28.6654 219.881 28.812C219.824 28.9147 219.719 28.9979 219.586 29.0457C219.308 29.0974 219.022 29.1167 218.737 29.1031Z" fill="#008E1F"/>
<path d="M225.152 30.3229C225.113 30.6562 224.973 30.9782 224.742 31.2638C224.672 31.3519 224.574 31.4253 224.457 31.4773C224.339 31.5292 224.206 31.558 224.07 31.5611C223.883 31.5537 223.702 31.506 223.55 31.4236C223.397 31.3411 223.279 31.2274 223.209 31.0957C222.989 30.7841 222.878 30.2634 222.878 29.5275C222.878 28.7915 222.992 28.3139 223.217 28.0064C223.291 27.8745 223.413 27.7612 223.569 27.6796C223.725 27.598 223.908 27.5514 224.097 27.5451C224.225 27.5455 224.35 27.5685 224.464 27.6123C224.577 27.6561 224.675 27.7195 224.751 27.7973C224.96 28.0087 225.089 28.2598 225.122 28.523L226.095 28.2442C226.024 27.83 225.826 27.4342 225.518 27.088C225.366 26.9188 225.162 26.7803 224.924 26.6845C224.685 26.5887 224.419 26.5386 224.149 26.5386C223.82 26.5388 223.497 26.6071 223.215 26.7361C222.933 26.865 222.703 27.0498 222.55 27.2704C222.098 27.8321 221.873 28.6098 221.873 29.6033C221.873 30.5436 222.098 31.2912 222.55 31.846C222.946 32.3257 223.458 32.5656 224.092 32.5656C224.335 32.5673 224.576 32.5277 224.797 32.4496C225.017 32.3716 225.212 32.2571 225.366 32.1146C225.713 31.8153 225.959 31.3376 226.106 30.6796L225.152 30.3229Z" fill="#008E1F"/>
<path d="M229.667 29.2078C229.385 28.8593 229.052 28.6851 228.669 28.6851C228.498 28.6847 228.332 28.728 228.198 28.8081C228.034 28.9093 227.901 29.0358 227.808 29.1791C227.844 28.519 227.929 28.0803 228.062 27.863C228.196 27.6457 228.364 27.5371 228.566 27.5371C228.878 27.5371 229.054 27.7523 229.108 28.1849L230.011 28.066C229.989 27.6773 229.825 27.3007 229.539 26.9774C229.437 26.8667 229.3 26.7764 229.142 26.7139C228.984 26.6515 228.808 26.6188 228.629 26.6187C228.109 26.6187 227.682 26.853 227.35 27.3218C227.017 27.7906 226.851 28.5586 226.851 29.626C226.851 30.677 227.011 31.4286 227.331 31.881C227.651 32.3361 228.054 32.5616 228.539 32.5616C228.769 32.5564 228.994 32.5054 229.189 32.4136C229.385 32.3218 229.545 32.1925 229.653 32.0389C229.945 31.5995 230.099 31.1151 230.103 30.6234C230.107 30.1317 229.962 29.6459 229.678 29.2037L229.667 29.2078ZM229.006 31.3972C228.972 31.4645 228.913 31.5232 228.837 31.566C228.761 31.6089 228.67 31.6343 228.575 31.6391C228.396 31.6391 228.236 31.5428 228.098 31.348C227.94 31.0838 227.869 30.7949 227.889 30.5055C227.868 30.2488 227.933 29.9924 228.076 29.7593C228.114 29.6903 228.176 29.6306 228.256 29.5865C228.336 29.5424 228.43 29.5157 228.529 29.5092C228.631 29.5153 228.728 29.5432 228.81 29.5896C228.892 29.6361 228.955 29.6992 228.992 29.7716C229.138 30.0343 229.203 30.3192 229.179 30.6039C229.204 30.8749 229.144 31.1466 229.006 31.3972Z" fill="#008E1F"/>
<path d="M230.727 26.717V27.7584H232.846C232.385 28.4704 232.034 29.2202 231.8 29.9929C231.542 30.8059 231.4 31.6375 231.377 32.4734H232.277C232.284 31.8767 232.358 31.2815 232.496 30.694C232.632 30.0665 232.841 29.4491 233.119 28.849C233.32 28.388 233.587 27.9446 233.914 27.5268V26.7068L230.727 26.717Z" fill="#008E1F"/>
<path d="M234.61 26.717V27.7584H236.729C236.268 28.4704 235.917 29.2202 235.683 29.9929C235.426 30.806 235.285 31.6376 235.263 32.4734H236.163C236.17 31.8767 236.244 31.2815 236.382 30.694C236.518 30.0665 236.727 29.4491 237.006 28.849C237.207 28.388 237.473 27.9446 237.8 27.5268V26.7068L234.61 26.717Z" fill="#008E1F"/>
<path d="M241.445 29.8083C241.313 29.5915 241.075 29.4218 240.781 29.3347C241.012 29.1895 241.198 29.0066 241.323 28.7997C241.443 28.5824 241.503 28.3486 241.499 28.1129C241.503 27.7496 241.366 27.3934 241.106 27.0879C241.001 26.9462 240.848 26.8284 240.663 26.7469C240.477 26.6654 240.266 26.6232 240.052 26.6246C239.862 26.6225 239.675 26.6541 239.505 26.7167C239.334 26.7794 239.186 26.8714 239.071 26.9854C238.763 27.3308 238.582 27.732 238.548 28.1478L239.41 28.322C239.412 28.1179 239.483 27.9176 239.615 27.7398C239.654 27.6815 239.712 27.6318 239.784 27.5958C239.856 27.5598 239.939 27.5388 240.025 27.5348C240.103 27.5352 240.18 27.5512 240.247 27.581C240.315 27.6109 240.371 27.6536 240.41 27.705C240.519 27.8476 240.571 28.0116 240.559 28.1765C240.575 28.3752 240.502 28.5724 240.353 28.7361C240.284 28.8004 240.196 28.8513 240.096 28.8845C239.996 28.9177 239.887 28.9322 239.778 28.9268L239.678 29.837C239.811 29.7873 239.955 29.7586 240.103 29.7529C240.202 29.7573 240.298 29.7821 240.38 29.8248C240.461 29.8674 240.526 29.9262 240.567 29.9948C240.707 30.201 240.772 30.4316 240.756 30.6631C240.773 30.9105 240.705 31.157 240.559 31.3786C240.516 31.4514 240.449 31.514 240.363 31.5595C240.277 31.6051 240.176 31.6319 240.071 31.6369C239.976 31.6341 239.884 31.6126 239.803 31.5745C239.723 31.5364 239.657 31.4829 239.613 31.4196C239.465 31.2285 239.385 31.0116 239.382 30.7902L238.48 30.9214C238.493 31.3522 238.673 31.7705 238.998 32.1248C239.118 32.2589 239.279 32.369 239.468 32.4454C239.657 32.5219 239.867 32.5624 240.082 32.5635C240.317 32.5572 240.546 32.5059 240.748 32.4145C240.95 32.3231 241.118 32.1945 241.236 32.0407C241.574 31.6485 241.743 31.1864 241.718 30.7185C241.728 30.4026 241.634 30.09 241.445 29.8083Z" fill="#008E1F"/>
<path d="M245.33 29.8083C245.198 29.5915 244.96 29.4218 244.666 29.3347C244.893 29.1884 245.074 29.0056 245.195 28.7997C245.316 28.5824 245.375 28.3486 245.371 28.1129C245.375 27.7496 245.238 27.3934 244.978 27.0879C244.873 26.9462 244.72 26.8284 244.535 26.7469C244.349 26.6654 244.138 26.6232 243.924 26.6246C243.734 26.6225 243.547 26.6541 243.377 26.7167C243.206 26.7794 243.058 26.8714 242.943 26.9854C242.635 27.3308 242.454 27.732 242.42 28.1478L243.282 28.322C243.284 28.1179 243.355 27.9176 243.488 27.7398C243.526 27.6815 243.584 27.6318 243.656 27.5958C243.728 27.5598 243.811 27.5388 243.897 27.5348C243.975 27.5352 244.052 27.5512 244.119 27.581C244.187 27.6109 244.243 27.6536 244.282 27.705C244.391 27.8476 244.443 28.0116 244.431 28.1765C244.447 28.3752 244.375 28.5724 244.225 28.7361C244.156 28.8004 244.068 28.8513 243.968 28.8845C243.868 28.9177 243.759 28.9322 243.65 28.9268L243.55 29.837C243.683 29.7873 243.827 29.7586 243.975 29.7529C244.074 29.7573 244.17 29.7821 244.252 29.8248C244.334 29.8674 244.398 29.9262 244.439 29.9948C244.579 30.201 244.645 30.4316 244.628 30.6631C244.645 30.9105 244.577 31.157 244.431 31.3786C244.389 31.4514 244.321 31.514 244.235 31.5595C244.149 31.6051 244.048 31.6319 243.943 31.6369C243.848 31.6341 243.756 31.6126 243.675 31.5745C243.595 31.5364 243.529 31.4829 243.485 31.4196C243.337 31.2285 243.258 31.0116 243.254 30.7902L242.352 30.9214C242.366 31.3522 242.545 31.7705 242.87 32.1248C242.99 32.2589 243.151 32.369 243.34 32.4454C243.529 32.5219 243.739 32.5624 243.954 32.5635C244.189 32.5572 244.418 32.5059 244.62 32.4145C244.822 32.3231 244.99 32.1945 245.108 32.0407C245.447 31.6485 245.615 31.1864 245.591 30.7185C245.604 30.4035 245.515 30.0909 245.33 29.8083Z" fill="#008E1F"/>
</svg>
