<svg width="25" height="24" viewBox="0 0 25 24" fill="none" xmlns="http://www.w3.org/2000/svg">
<path fill-rule="evenodd" clip-rule="evenodd" d="M9.62739 17.9118C7.35919 14.5567 4.49238 9.84 4.49238 7.41551C4.49238 3.32571 8.22144 0 12.8072 0C17.3931 0 21.1221 3.32571 21.1221 7.41551C21.1221 9.84 18.2553 14.5567 15.9871 17.9118C18.6782 18.0931 24.8018 18.7445 24.8018 20.9045C24.8018 23.0302 18.5848 24 12.8018 24C7.02418 24 0.801758 23.0302 0.801758 20.9045C0.807249 18.7445 6.93631 18.0931 9.62739 17.9118ZM19.9742 7.41551C19.9742 3.88898 16.7559 1.01878 12.8072 1.01878C8.85293 1.01878 5.63463 3.88898 5.63463 7.41551C5.63463 10.4963 11.1376 18.2253 12.8072 20.498C14.4767 18.2253 19.9742 10.4963 19.9742 7.41551ZM23.6592 20.8996C23.6592 21.6049 19.8313 22.9763 12.807 22.9763C5.78275 22.9763 1.95483 21.6098 1.94934 20.8996C1.94934 20.351 4.47565 19.1853 10.2972 18.8865C11.3901 20.4588 12.2139 21.5804 12.3292 21.7028C12.6972 22.0898 13.131 21.8792 13.2793 21.7028C13.3892 21.5706 14.2184 20.4588 15.3114 18.8865C21.1329 19.1853 23.6592 20.3559 23.6592 20.8996Z" fill="#E63C00"/>
<path fill-rule="evenodd" clip-rule="evenodd" d="M12.8025 4C10.8693 4 9.30249 5.49216 9.30249 7.33333C9.30249 9.17451 10.8693 10.6667 12.8025 10.6667C14.7357 10.6667 16.3025 9.17451 16.3025 7.33333C16.3025 5.49216 14.7357 4 12.8025 4ZM12.8027 5.0521C14.1252 5.0521 15.198 6.07385 15.198 7.33333C15.198 8.59281 14.1252 9.61456 12.8027 9.61456C11.4802 9.61456 10.4074 8.59281 10.4074 7.33333C10.4074 6.07385 11.4802 5.0521 12.8027 5.0521Z" fill="#E63C00"/>
</svg>
