<svg width="25" height="24" viewBox="0 0 25 24" fill="none" xmlns="http://www.w3.org/2000/svg">
<path fill-rule="evenodd" clip-rule="evenodd" d="M19.9215 14.4562L23.4841 17.4824C24.724 18.2961 24.9078 20.0458 23.8544 21.0983L22.5447 22.4064C20.537 24.4122 17.7004 24.2922 15.0338 23.319C12.3396 22.3356 9.40079 20.3405 6.7587 17.7012C4.17765 15.1229 2.2167 12.2644 1.23715 9.65259C0.0935344 6.60352 0.364452 4.11768 2.02039 2.46332L3.40907 1.07612C3.40944 1.07593 3.4098 1.07557 3.40999 1.0752L3.79895 0.686651C4.85714 -0.370233 6.62031 -0.180719 7.42976 1.07374L10.0026 4.64521C10.0077 4.65253 10.0126 4.65986 10.0174 4.66736C10.6124 5.60102 10.4808 6.79981 9.69719 7.58258L7.75494 9.52332C7.62003 9.65772 7.58025 9.85785 7.65302 10.0336C7.66622 10.0653 7.67557 10.0977 7.68144 10.1303C7.73074 10.2827 8.10468 11.3639 9.14197 12.7246C10.5022 14.5089 12.3041 15.8734 14.4975 16.7798C14.6734 16.8523 14.8741 16.8126 15.0087 16.678L16.9511 14.7378C17.7347 13.9552 18.9348 13.8235 19.8694 14.4179C19.8876 14.4294 19.905 14.4423 19.9215 14.4562ZM22.8996 18.2162L19.3401 15.1926C18.7828 14.8544 18.0775 14.9381 17.6147 15.4006L17.0224 15.9921L23.0935 20.5327L23.1907 20.4355C23.8269 19.8001 23.7118 18.7381 22.9514 18.2545C22.9333 18.243 22.9159 18.2302 22.8996 18.2162ZM6.64555 1.58881C6.65032 1.59632 6.65527 1.60383 6.6604 1.61097L9.23211 5.18116C9.58148 5.73981 9.50064 6.45301 9.03341 6.91974L8.45949 7.49323L4.3521 1.45954L4.46226 1.34949C5.10107 0.711372 6.16329 0.832038 6.64555 1.58881ZM7.42229 17.0383C9.9698 19.5831 12.7873 21.501 15.3557 22.4385C17.3036 23.1495 20.0169 23.6061 21.8812 21.7436L22.4232 21.2023L16.3521 16.6617L15.6723 17.341C15.2683 17.7444 14.6665 17.8641 14.1388 17.6461C11.1358 16.405 9.29929 14.5155 8.28747 13.1488C7.59991 12.2201 6.9184 10.9598 6.77029 10.3526C6.57361 9.83478 6.69752 9.25324 7.09162 8.8603L7.78431 8.16797L3.67691 2.13429L2.68398 3.12635C0.944821 4.86347 1.41499 7.45533 2.11574 9.32374C3.04929 11.8129 4.9338 14.5527 7.42229 17.0383Z" fill="#E63C00"/>
</svg>
