<svg width="25" height="24" viewBox="0 0 25 24" fill="none" xmlns="http://www.w3.org/2000/svg">
<path fill-rule="evenodd" clip-rule="evenodd" d="M23.6873 0.0788773C23.8925 -0.0353883 24.1433 -0.0247846 24.3317 0.105994C24.5237 0.236773 24.6197 0.465359 24.5789 0.69146L20.9788 20.7206C20.9476 20.8974 20.8348 21.0506 20.6728 21.1366C20.5132 21.2226 20.3211 21.2308 20.1508 21.1601L12.4298 17.9119L11.375 23.0912C11.3221 23.3527 11.0966 23.5471 10.8241 23.5636C10.816 23.5619 10.8065 23.5621 10.7972 23.5623C10.7942 23.5624 10.7911 23.5625 10.7881 23.5625C10.5314 23.5625 10.3009 23.401 10.2181 23.1595L7.91291 16.3697L0.998347 14.1064C0.773961 14.0333 0.615557 13.8377 0.591538 13.608C0.566337 13.3771 0.682721 13.1544 0.886744 13.0389L23.6873 0.0788773ZM12.2247 16.5405L19.9288 19.7817L23.1737 1.73073L2.64126 13.4018L8.57784 15.3447C8.75661 15.4024 8.89825 15.5414 8.95703 15.717L10.6419 20.6819L11.3991 16.9659C11.4339 16.7927 11.5479 16.643 11.7087 16.5606C11.8683 16.4769 12.0579 16.4698 12.2247 16.5405Z" fill="#E63C00"/>
<path d="M24.379 0.142128C24.1433 -0.0594221 23.7963 -0.0451095 23.5771 0.175506L8.17933 15.6808C7.94836 15.9134 7.94836 16.2915 8.17933 16.5241C8.4103 16.7567 8.78579 16.7567 9.01675 16.5241L19.3558 6.11411L11.6699 16.9487C11.4804 17.2159 11.5408 17.5892 11.8073 17.78C11.9127 17.8551 12.0323 17.8909 12.152 17.8909C12.3356 17.8909 12.5191 17.8039 12.6341 17.6416L24.4785 0.943633C24.6562 0.690815 24.6135 0.342504 24.379 0.142128Z" fill="#E63C00"/>
<path d="M14.7477 18.0134C14.4837 17.8118 14.1081 17.8643 13.9077 18.1355L10.3075 23.0228C10.1095 23.2928 10.1635 23.6752 10.4287 23.878C10.5367 23.9599 10.6639 24.0002 10.7888 24.0002C10.9699 24.0002 11.1512 23.9159 11.2688 23.7558L14.8689 18.8686C15.067 18.5986 15.013 18.2162 14.7477 18.0134Z" fill="#E63C00"/>
</svg>
