<svg width="892" height="340" viewBox="0 0 892 340" fill="none" xmlns="http://www.w3.org/2000/svg">
<path opacity="0.05" d="M220.5 246H160.65L60.55 94.45V246H0.700001V0.299992H60.55L160.65 152.55V0.299992H220.5V246ZM447.984 145.2C447.984 150.8 447.634 156.633 446.934 162.7H311.484C312.417 174.833 316.267 184.167 323.034 190.7C330.034 197 338.55 200.15 348.584 200.15C363.517 200.15 373.9 193.85 379.734 181.25H443.434C440.167 194.083 434.217 205.633 425.584 215.9C417.184 226.167 406.567 234.217 393.734 240.05C380.9 245.883 366.55 248.8 350.684 248.8C331.55 248.8 314.517 244.717 299.584 236.55C284.65 228.383 272.984 216.717 264.584 201.55C256.184 186.383 251.984 168.65 251.984 148.35C251.984 128.05 256.067 110.317 264.234 95.15C272.634 79.9833 284.3 68.3167 299.234 60.15C314.167 51.9833 331.317 47.9 350.684 47.9C369.584 47.9 386.384 51.8667 401.084 59.8C415.784 67.7333 427.217 79.05 435.384 93.75C443.784 108.45 447.984 125.6 447.984 145.2ZM386.734 129.45C386.734 119.183 383.234 111.017 376.234 104.95C369.234 98.8833 360.484 95.85 349.984 95.85C339.95 95.85 331.434 98.7667 324.434 104.6C317.667 110.433 313.467 118.717 311.834 129.45H386.734ZM595.057 246L557.607 191.75L526.107 246H461.357L525.757 146.25L459.607 50.7H526.807L564.257 104.6L595.757 50.7H660.507L595.057 149.05L662.257 246H595.057ZM745.169 78.35C751.002 69.25 759.052 61.9 769.319 56.3C779.586 50.7 791.602 47.9 805.369 47.9C821.469 47.9 836.052 51.9833 849.119 60.15C862.186 68.3167 872.452 79.9833 879.919 95.15C887.619 110.317 891.469 127.933 891.469 148C891.469 168.067 887.619 185.8 879.919 201.2C872.452 216.367 862.186 228.15 849.119 236.55C836.052 244.717 821.469 248.8 805.369 248.8C791.836 248.8 779.819 246 769.319 240.4C759.052 234.8 751.002 227.567 745.169 218.7V339.1H685.319V50.7H745.169V78.35ZM830.569 148C830.569 133.067 826.369 121.4 817.969 113C809.802 104.367 799.652 100.05 787.519 100.05C775.619 100.05 765.469 104.367 757.069 113C748.902 121.633 744.819 133.417 744.819 148.35C744.819 163.283 748.902 175.067 757.069 183.7C765.469 192.333 775.619 196.65 787.519 196.65C799.419 196.65 809.569 192.333 817.969 183.7C826.369 174.833 830.569 162.933 830.569 148Z" fill="#009F32"/>
</svg>
